<svg width="1120" height="278" viewBox="0 0 1120 278" fill="none" xmlns="http://www.w3.org/2000/svg">
<mask id="mask0" mask-type="alpha" maskUnits="userSpaceOnUse" x="0" y="0" width="1120" height="278">
<rect width="1120" height="278" rx="12" fill="#5F5F5F"/>
</mask>
<g mask="url(#mask0)">
<path d="M113.6 -156C113.6 -156 312.9 -74.3 331.3 -66.8C344.7 -61.3 346.8 -50.3 342.2 -37.8C337.6 -25.3 278.2 124 272.8 134.6C266.6 146.7 256.1 152 243.4 146.8C228.5 140.7 33 54.7 6 44.1C8.6 35.6 113.6 -156 113.6 -156Z" fill="url(#paint0_linear)"/>
<g opacity="0.4" filter="url(#filter0_f)">
<path d="M217.101 132.95L121.423 93.5035C118.999 92.5042 118.289 88.5537 119.914 84.6117L146.562 19.9757C148.16 16.1016 151.433 13.7137 153.899 14.7305L249.578 54.1767C252.002 55.176 252.711 59.1265 251.086 63.0685L224.438 127.704C222.813 131.647 219.568 133.967 217.101 132.95Z" fill="#1C1134"/>
</g>
<path d="M5.32948 -54.6261C7.28166 -58.2035 11.4373 -59.6779 15.2082 -58.1321C49.6798 -44.0014 209.989 21.7109 226.4 28.4C239.8 33.9 241.9 44.9 237.3 57.4C232.7 69.9 173.3 219.2 167.9 229.8C161.7 241.9 151.2 247.2 138.5 242C124.426 236.371 -49.3358 162.517 -93.1255 144.745C-97.001 143.172 -98.7528 139.063 -96.8759 135.326C-81.068 103.846 -10.9236 -24.8422 5.32948 -54.6261Z" fill="url(#paint1_linear)"/>
<mask id="mask1" mask-type="alpha" maskUnits="userSpaceOnUse" x="-98" y="-59" width="338" height="303">
<path d="M5.32948 -54.8261C7.28166 -58.4035 11.4373 -59.8779 15.2082 -58.3321C49.6798 -44.2014 209.989 21.5109 226.4 28.2C239.8 33.7 241.9 44.7 237.3 57.2C232.7 69.7 173.3 219 167.9 229.6C161.7 241.7 151.2 247 138.5 241.8C124.426 236.171 -49.3358 162.317 -93.1255 144.545C-97.001 142.972 -98.7528 138.863 -96.8759 135.126C-81.068 103.645 -10.9236 -25.0422 5.32948 -54.8261Z" fill="url(#paint2_linear)"/>
</mask>
<g mask="url(#mask1)">
<g opacity="0.8" filter="url(#filter1_f)">
<circle cx="281" cy="105" r="133" fill="#22CAD9"/>
</g>
</g>
<g opacity="0.5" filter="url(#filter2_f)">
<path d="M238.67 187.075L160.609 154.892C158.631 154.077 157.727 151.642 158.643 149.42L173.665 112.985C174.565 110.801 176.904 109.658 178.916 110.488L256.977 142.67C258.954 143.486 259.858 145.92 258.942 148.143L243.921 184.578C243.004 186.8 240.682 187.905 238.67 187.075Z" fill="#1C1134"/>
</g>
<path opacity="0.2" d="M233 68L203.5 144.2L-33.7998 46L-2.0998 -25.3L233 68Z" fill="url(#paint3_linear)"/>
<g filter="url(#filter3_d)">
<path d="M181.254 104.754L139.954 88.6537C137.554 87.7537 136.354 85.0537 137.354 82.6537L147.354 56.9537C148.254 54.5537 150.954 53.3537 153.354 54.3537L194.654 70.4537C197.054 71.3537 198.254 74.0537 197.254 76.4537L187.254 102.154C186.354 104.554 183.654 105.754 181.254 104.754Z" stroke="white" stroke-miterlimit="10"/>
<path d="M154.771 62.5537L167.088 67.4153" stroke="white" stroke-linecap="round"/>
<path d="M157.969 71.3354L172.12 76.921" stroke="white" stroke-linecap="round"/>
<path d="M155.399 77.8417L169.754 83.5537" stroke="white" stroke-linecap="round"/>
<path d="M175.001 78L183.001 81" stroke="white" stroke-linecap="round"/>
<path d="M147.067 82.0725L158.074 86.4168" stroke="white" stroke-linecap="round"/>
</g>
<path opacity="0.1" d="M142 69C130.017 64.0318 135.042 42.2484 114.168 34.2229C97.4689 27.8025 24.4314 -0.267516 10 -6" stroke="#22CAD9" stroke-miterlimit="10"/>
<circle cx="142.5" cy="69.5" r="3.5" fill="#184988" stroke="#3C6DAE"/>
<path opacity="0.08" d="M172.1 158.7L145.5 225L96.1006 203.502L124.001 136.802L172.1 158.7Z" fill="white"/>
<path d="M128 192L-19 130" stroke="url(#paint4_linear)"/>
<path d="M127 195L-20 133" stroke="url(#paint5_linear)"/>
<path d="M126 198L-21 136" stroke="url(#paint6_linear)"/>
<path d="M125 201L-22 139" stroke="url(#paint7_linear)"/>
<path opacity="0.08" d="M110.5 130L82.3 197.1L29 174.5L57.5 107.5L110.5 130Z" fill="white"/>
<g opacity="0.2" filter="url(#filter4_f)">
<path d="M158.935 187.744L62.4599 147.97C60.0159 146.962 58.7392 144.34 59.6703 142.082L74.9378 105.05C75.8529 102.83 78.5798 101.813 81.0667 102.838L177.541 142.613C179.985 143.621 181.262 146.243 180.331 148.501L165.064 185.533C164.132 187.792 161.422 188.77 158.935 187.744Z" fill="#1C1134"/>
</g>
<path opacity="0.08" d="M45.1 101.7L15.5 168L-37.2002 145.9L-6.3002 79.9L45.1 101.7Z" fill="white"/>
<path opacity="0.4" d="M223.5 27C205 19.7 8.7 -60.8 8.7 -60.8C8.7 -60.8 1.4 -47.4 -9.5 -27.6L233 68C234.1 65.1 236.8 58.5 237.2 57.4C241.8 44.9 242 34.3 223.5 27Z" fill="url(#paint8_linear)"/>
<path opacity="0.2" d="M164.6 22.7L135 11" stroke="#302353" stroke-width="3" stroke-miterlimit="10" stroke-linecap="round"/>
<path opacity="0.2" d="M198.3 36.2L173.2 26.2" stroke="#302353" stroke-width="3" stroke-miterlimit="10" stroke-linecap="round"/>
<path opacity="0.2" d="M219.601 44.6L205.301 38.9" stroke="#302353" stroke-width="3" stroke-miterlimit="10" stroke-linecap="round"/>
<g opacity="0.4">
<path d="M96.519 108.788L22.0614 78.8381C19.6436 77.882 18.4947 75.2025 19.4508 72.7847L36.865 29.4605C37.8211 27.0427 40.5006 25.8937 42.9184 26.8498L117.376 56.7993C119.794 57.7554 120.943 60.435 119.987 62.8528L102.572 106.177C101.616 108.595 98.8368 109.746 96.519 108.788Z" stroke="#22CAD9" stroke-miterlimit="10"/>
<path opacity="0.2" d="M27 51C15.0168 46.0319 20.042 24.2485 -0.831932 16.223C-17.5311 9.80259 -90.5686 -18.2675 -105 -24" stroke="#22CAD9" stroke-miterlimit="10"/>
<circle cx="27.5" cy="51.5" r="3.5" fill="#184988" stroke="#22CAD9"/>
<path d="M43.958 38.0329L65.7948 46.7165" stroke="#22CAD9" stroke-linecap="round"/>
<path d="M50.9385 50.2483L76.0275 60.2252" stroke="#22CAD9" stroke-linecap="round"/>
<path d="M47.6973 58.3989L56.0603 61.7245" stroke="#22CAD9" stroke-linecap="round"/>
<path d="M58.8477 62.8329L91.3705 75.7659" stroke="#22CAD9" stroke-linecap="round"/>
<path d="M91.8242 66.5068L105.763 72.0496" stroke="#22CAD9" stroke-linecap="round"/>
<path d="M78.8154 61.3336L89.0369 65.3983" stroke="#22CAD9" stroke-linecap="round"/>
<path d="M68.1182 47.6403L76.4812 50.9659" stroke="#22CAD9" stroke-linecap="round"/>
<path d="M34.2344 62.4846L53.7481 70.2445" stroke="#22CAD9" stroke-linecap="round"/>
</g>
<path d="M160.966 181.955L60.6374 140.592C58.0958 139.544 56.8457 136.629 57.9119 134.043L75.3947 91.6376C76.4426 89.096 79.3578 87.8459 81.944 88.9121L182.272 130.275C184.814 131.323 186.064 134.238 184.998 136.825L167.515 179.23C166.449 181.816 163.552 183.022 160.966 181.955Z" fill="#1C1134"/>
<g opacity="0.4">
<path opacity="0.6" d="M100.208 113.449L90.1751 109.313C89.5062 109.037 89.1918 108.281 89.4675 107.613C89.7433 106.944 90.4989 106.629 91.1678 106.905L101.201 111.041C101.869 111.317 102.184 112.073 101.908 112.742C101.677 113.429 100.877 113.725 100.208 113.449Z" fill="#8953FF"/>
<path opacity="0.6" d="M116.69 127.757L95.0188 118.822C94.35 118.547 94.0355 117.791 94.3113 117.122C94.587 116.453 95.3427 116.139 96.0116 116.415L117.682 125.349C118.351 125.625 118.666 126.38 118.39 127.049C118.114 127.718 117.359 128.033 116.69 127.757Z" fill="#8953FF"/>
<path opacity="0.4" d="M132.505 131.408L121.001 126.665C120.332 126.389 119.576 126.703 119.301 127.372C119.025 128.041 119.339 128.797 120.008 129.073L131.512 133.816C132.181 134.091 132.937 133.777 133.213 133.108C133.488 132.439 133.174 131.683 132.505 131.408Z" fill="#8953FF"/>
<path opacity="0.6" d="M140.978 145.022L130.812 140.83C130.143 140.555 129.828 139.799 130.104 139.13C130.38 138.461 131.136 138.147 131.805 138.422L141.971 142.614C142.64 142.89 142.954 143.645 142.679 144.314C142.466 144.957 141.647 145.298 140.978 145.022Z" fill="#8953FF"/>
<path opacity="0.6" d="M165.873 148.034L150.222 141.581C149.553 141.306 149.239 140.55 149.514 139.881C149.79 139.212 150.546 138.898 151.215 139.173L166.866 145.626C167.535 145.902 167.849 146.657 167.573 147.326C167.298 147.995 166.542 148.31 165.873 148.034Z" fill="#8953FF"/>
<path opacity="0.6" d="M109.542 132.061L99.7317 128.017C99.0629 127.741 98.7484 126.985 99.0241 126.317C99.2999 125.648 100.056 125.333 100.724 125.609L110.534 129.653C111.203 129.929 111.518 130.685 111.242 131.354C111.029 131.996 110.255 132.355 109.542 132.061Z" fill="#8953FF"/>
<path opacity="0.4" d="M129.147 137.275L113.897 130.988C113.228 130.712 112.473 131.026 112.197 131.695C111.921 132.364 112.236 133.12 112.905 133.395L128.154 139.683C128.823 139.958 129.579 139.644 129.855 138.975C130.131 138.306 129.816 137.551 129.147 137.275Z" fill="#8953FF"/>
<path opacity="0.6" d="M138.539 136.765L134.793 135.221C134.124 134.945 133.81 134.189 134.086 133.52C134.361 132.851 135.117 132.537 135.786 132.813L139.532 134.357C140.2 134.633 140.515 135.388 140.239 136.057C139.963 136.726 139.208 137.04 138.539 136.765Z" fill="#8953FF"/>
<path opacity="0.34" d="M147.844 137.732L143.028 135.746C142.359 135.47 141.604 135.785 141.328 136.454C141.052 137.123 141.367 137.878 142.035 138.154L146.851 140.14C147.52 140.415 148.276 140.101 148.551 139.432C148.827 138.763 148.513 138.007 147.844 137.732Z" fill="#8953FF"/>
<path opacity="0.4" d="M109.138 114.314L104.545 112.42C103.876 112.144 103.12 112.459 102.844 113.128C102.569 113.797 102.883 114.552 103.552 114.828L108.145 116.721C108.814 116.997 109.569 116.683 109.845 116.014C110.121 115.345 109.806 114.589 109.138 114.314Z" fill="#8953FF"/>
<path opacity="0.6" d="M126.517 124.296L111.401 118.063C110.732 117.788 110.417 117.032 110.693 116.363C110.969 115.694 111.725 115.38 112.393 115.656L127.509 121.888C128.178 122.163 128.493 122.919 128.217 123.588C127.941 124.257 127.186 124.571 126.517 124.296Z" fill="#8953FF"/>
<path opacity="0.6" d="M103.681 144.252L80.2708 134.601C79.6019 134.325 79.2875 133.57 79.5632 132.901C79.839 132.232 80.5946 131.917 81.2635 132.193L104.673 141.845C105.342 142.12 105.657 142.876 105.381 143.545C105.15 144.232 104.35 144.528 103.681 144.252Z" fill="#8953FF"/>
<path opacity="0.4" d="M114.614 141.556L91.2044 131.904C90.5355 131.629 90.221 130.873 90.4968 130.204C90.7726 129.535 91.5282 129.221 92.1971 129.497L115.607 139.148C116.276 139.424 116.59 140.179 116.315 140.848C116.083 141.536 115.283 141.832 114.614 141.556Z" fill="#8953FF"/>
</g>
<path d="M228.601 175.587L145.194 141.33C142.468 140.258 141.277 137.127 142.351 134.513L159.745 92.0157C160.817 89.2895 163.948 88.0992 166.561 89.1731L249.969 123.43C252.695 124.501 253.885 127.633 252.811 130.246L235.417 172.744C234.343 175.357 231.327 176.658 228.601 175.587Z" fill="url(#paint9_linear)"/>
<g opacity="0.4">
<path d="M47.1421 240.838L-12 214.236L-10.9976 212L48.1445 238.679L47.1421 240.838Z" fill="url(#paint10_linear)"/>
<path d="M52.1107 246L17 230.34L19.8892 224L55 239.66L52.1107 246Z" fill="url(#paint11_linear)"/>
</g>
<path d="M211.901 221.8L168.101 202.1L170.801 196.1L214.601 215.8L211.901 221.8Z" fill="url(#paint12_linear)"/>
<path opacity="0.5" d="M215.526 227L197 218.918L202.614 207L221 215.082L215.526 227Z" fill="url(#paint13_linear)"/>
<g opacity="0.45">
<rect width="158.719" height="1.68652" transform="matrix(0.928175 0.372145 0.372145 -0.928175 118.961 -36.0394)" fill="url(#paint14_linear)"/>
<rect opacity="0.3" width="67.489" height="6.84782" transform="matrix(0.928175 0.372145 0.372145 -0.928175 208.412 2.60602)" fill="url(#paint15_linear)"/>
</g>
<circle opacity="0.4" r="3.5" transform="matrix(-1 0 0 1 255.5 185.5)" fill="url(#paint16_linear)"/>
<circle opacity="0.4" r="2.5" transform="matrix(-1 0 0 1 190.5 249.5)" fill="url(#paint17_linear)"/>
<circle opacity="0.4" r="4.5" transform="matrix(-1 0 0 1 255.5 67.5)" fill="url(#paint18_linear)"/>
<path d="M168.5 116C156.242 116 143.5 129.503 138 120.503L132.306 134.929C131.304 137.468 132.522 140.341 135.044 141.385L218.867 176.086C221.424 177.144 224.354 175.925 225.405 173.365L235 150C233.5 143.5 227.5 134.5 219 134.5C208.822 134.5 197.189 150.626 185 136C180 130 180 116 168.5 116Z" fill="url(#paint19_linear)"/>
<mask id="mask2" mask-type="alpha" maskUnits="userSpaceOnUse" x="131" y="87" width="114" height="91">
<path d="M218.601 175.587L135.194 141.33C132.468 140.258 131.277 137.127 132.351 134.513L149.745 92.0157C150.817 89.2895 153.948 88.0991 156.561 89.173L239.969 123.43C242.695 124.501 243.885 127.633 242.811 130.246L225.417 172.744C224.343 175.357 221.327 176.658 218.601 175.587Z" fill="url(#paint20_linear)"/>
</mask>
<g mask="url(#mask2)">
<path opacity="0.4" d="M137 107.5C149.5 112 148 133 160.5 138.5C174.419 144.624 188 123.912 202 130.5C213.5 135.912 213.5 164 235 158" stroke="#4F3A87"/>
</g>
</g>
<defs>
<filter id="filter0_f" x="92" y="-12.0928" width="187" height="171.866" filterUnits="userSpaceOnUse" color-interpolation-filters="sRGB">
<feFlood flood-opacity="0" result="BackgroundImageFix"/>
<feBlend mode="normal" in="SourceGraphic" in2="BackgroundImageFix" result="shape"/>
<feGaussianBlur stdDeviation="12.5" result="effect1_foregroundBlur"/>
</filter>
<filter id="filter1_f" x="48" y="-128" width="466" height="466" filterUnits="userSpaceOnUse" color-interpolation-filters="sRGB">
<feFlood flood-opacity="0" result="BackgroundImageFix"/>
<feBlend mode="normal" in="SourceGraphic" in2="BackgroundImageFix" result="shape"/>
<feGaussianBlur stdDeviation="50" result="effect1_foregroundBlur"/>
</filter>
<filter id="filter2_f" x="137.001" y="89" width="143.584" height="119.563" filterUnits="userSpaceOnUse" color-interpolation-filters="sRGB">
<feFlood flood-opacity="0" result="BackgroundImageFix"/>
<feBlend mode="normal" in="SourceGraphic" in2="BackgroundImageFix" result="shape"/>
<feGaussianBlur stdDeviation="10" result="effect1_foregroundBlur"/>
</filter>
<filter id="filter3_d" x="133.5" y="50.4997" width="69.6079" height="60.1079" filterUnits="userSpaceOnUse" color-interpolation-filters="sRGB">
<feFlood flood-opacity="0" result="BackgroundImageFix"/>
<feColorMatrix in="SourceAlpha" type="matrix" values="0 0 0 0 0 0 0 0 0 0 0 0 0 0 0 0 0 0 127 0"/>
<feOffset dx="1" dy="1"/>
<feGaussianBlur stdDeviation="2"/>
<feColorMatrix type="matrix" values="0 0 0 0 1 0 0 0 0 1 0 0 0 0 1 0 0 0 0.4 0"/>
<feBlend mode="normal" in2="BackgroundImageFix" result="effect1_dropShadow"/>
<feBlend mode="normal" in="SourceGraphic" in2="effect1_dropShadow" result="shape"/>
</filter>
<filter id="filter4_f" x="52.001" y="95" width="136" height="100.583" filterUnits="userSpaceOnUse" color-interpolation-filters="sRGB">
<feFlood flood-opacity="0" result="BackgroundImageFix"/>
<feBlend mode="normal" in="SourceGraphic" in2="BackgroundImageFix" result="shape"/>
<feGaussianBlur stdDeviation="3" result="effect1_foregroundBlur"/>
</filter>
<linearGradient id="paint0_linear" x1="5.9383" y1="-3.58161" x2="344.395" y2="-3.58161" gradientUnits="userSpaceOnUse">
<stop stop-color="#7F69CE"/>
<stop offset="1" stop-color="#1C1134"/>
</linearGradient>
<linearGradient id="paint1_linear" x1="67.5" y1="249" x2="181.811" y2="105.724" gradientUnits="userSpaceOnUse">
<stop stop-color="#9474D9"/>
<stop offset="1" stop-color="#032B8D"/>
</linearGradient>
<linearGradient id="paint2_linear" x1="82" y1="-10.5" x2="15.4747" y2="195.567" gradientUnits="userSpaceOnUse">
<stop stop-color="#9474D9"/>
<stop offset="1" stop-color="#032B8D"/>
</linearGradient>
<linearGradient id="paint3_linear" x1="-9" y1="-11" x2="18.3033" y2="150.835" gradientUnits="userSpaceOnUse">
<stop stop-color="#9474D9"/>
<stop offset="1"/>
</linearGradient>
<linearGradient id="paint4_linear" x1="54.5" y1="130" x2="54.5" y2="192" gradientUnits="userSpaceOnUse">
<stop stop-color="white" stop-opacity="0.56"/>
<stop offset="0.317708" stop-color="#7A87FF" stop-opacity="0.842466"/>
<stop offset="0.411458" stop-color="white" stop-opacity="0"/>
<stop offset="0.692708" stop-color="#6F8EFF" stop-opacity="0.39"/>
<stop offset="0.75" stop-color="white" stop-opacity="0"/>
<stop offset="1" stop-color="#9EF9FF"/>
</linearGradient>
<linearGradient id="paint5_linear" x1="53.5" y1="133" x2="53.5" y2="195" gradientUnits="userSpaceOnUse">
<stop stop-color="white" stop-opacity="0.56"/>
<stop offset="0.317708" stop-color="#7A87FF" stop-opacity="0.842466"/>
<stop offset="0.411458" stop-color="white" stop-opacity="0"/>
<stop offset="0.692708" stop-color="#6F8EFF" stop-opacity="0.39"/>
<stop offset="0.75" stop-color="white" stop-opacity="0"/>
<stop offset="1" stop-color="#9EF9FF"/>
</linearGradient>
<linearGradient id="paint6_linear" x1="52.5" y1="136" x2="52.5" y2="198" gradientUnits="userSpaceOnUse">
<stop stop-color="white" stop-opacity="0.56"/>
<stop offset="0.317708" stop-color="#7A87FF" stop-opacity="0.842466"/>
<stop offset="0.411458" stop-color="white" stop-opacity="0"/>
<stop offset="0.692708" stop-color="#6F8EFF" stop-opacity="0.39"/>
<stop offset="0.75" stop-color="white" stop-opacity="0"/>
<stop offset="1" stop-color="#9EF9FF"/>
</linearGradient>
<linearGradient id="paint7_linear" x1="51.5" y1="139" x2="51.5" y2="201" gradientUnits="userSpaceOnUse">
<stop stop-color="white" stop-opacity="0.56"/>
<stop offset="0.317708" stop-color="#7A87FF" stop-opacity="0.842466"/>
<stop offset="0.411458" stop-color="white" stop-opacity="0"/>
<stop offset="0.692708" stop-color="#6F8EFF" stop-opacity="0.39"/>
<stop offset="0.75" stop-color="white" stop-opacity="0"/>
<stop offset="1" stop-color="#9EF9FF"/>
</linearGradient>
<linearGradient id="paint8_linear" x1="-9.5058" y1="3.61431" x2="321.125" y2="3.61431" gradientUnits="userSpaceOnUse">
<stop stop-color="#7F69CE"/>
<stop offset="0.9864" stop-color="#2EFFFB"/>
<stop offset="1" stop-color="#1C1134"/>
</linearGradient>
<linearGradient id="paint9_linear" x1="251.265" y1="127.197" x2="177.47" y2="132.83" gradientUnits="userSpaceOnUse">
<stop stop-color="#80F5FF"/>
<stop offset="1" stop-color="#22CAD9"/>
</linearGradient>
<linearGradient id="paint10_linear" x1="-10.1653" y1="210.213" x2="48.9702" y2="236.849" gradientUnits="userSpaceOnUse">
<stop stop-color="#4E6DC0" stop-opacity="0"/>
<stop offset="1" stop-color="#3070B8"/>
</linearGradient>
<linearGradient id="paint11_linear" x1="19.1983" y1="227.834" x2="78.3462" y2="254.294" gradientUnits="userSpaceOnUse">
<stop stop-color="#4E6DC0" stop-opacity="0"/>
<stop offset="1" stop-color="#7A70FF"/>
</linearGradient>
<linearGradient id="paint12_linear" x1="169.441" y1="199.092" x2="213.25" y2="218.824" gradientUnits="userSpaceOnUse">
<stop stop-color="#4E6DC0" stop-opacity="0"/>
<stop offset="1" stop-color="#3070B8"/>
</linearGradient>
<linearGradient id="paint13_linear" x1="199.836" y1="212.955" x2="218.167" y2="221.414" gradientUnits="userSpaceOnUse">
<stop stop-color="#4E6DC0" stop-opacity="0"/>
<stop offset="1" stop-color="#7A70FF"/>
</linearGradient>
<linearGradient id="paint14_linear" x1="185.363" y1="1.68649" x2="-7.59378e-07" y2="1.68641" gradientUnits="userSpaceOnUse">
<stop stop-color="#0399ED"/>
<stop offset="1" stop-color="#7084F2" stop-opacity="0"/>
</linearGradient>
<linearGradient id="paint15_linear" x1="78.8184" y1="6.84773" x2="-3.22912e-07" y2="6.84772" gradientUnits="userSpaceOnUse">
<stop stop-color="#33D9BB"/>
<stop offset="1" stop-color="#07A7E6" stop-opacity="0"/>
</linearGradient>
<linearGradient id="paint16_linear" x1="0" y1="0" x2="6.75" y2="6.75" gradientUnits="userSpaceOnUse">
<stop stop-color="#07A8E4" stop-opacity="0"/>
<stop offset="1" stop-color="#7083F2"/>
</linearGradient>
<linearGradient id="paint17_linear" x1="0" y1="0" x2="4.82143" y2="4.82143" gradientUnits="userSpaceOnUse">
<stop stop-color="#07A8E4" stop-opacity="0"/>
<stop offset="1" stop-color="#7083F2"/>
</linearGradient>
<linearGradient id="paint18_linear" x1="0" y1="0" x2="8.67857" y2="8.67857" gradientUnits="userSpaceOnUse">
<stop stop-color="#07A8E4" stop-opacity="0"/>
<stop offset="1" stop-color="#7083F2"/>
</linearGradient>
<linearGradient id="paint19_linear" x1="242.5" y1="173.5" x2="229.458" y2="83.9718" gradientUnits="userSpaceOnUse">
<stop stop-color="#9474D9" stop-opacity="0.22"/>
<stop offset="1" stop-color="#032B8D"/>
</linearGradient>
<linearGradient id="paint20_linear" x1="241.265" y1="127.197" x2="167.47" y2="132.83" gradientUnits="userSpaceOnUse">
<stop stop-color="#80F5FF"/>
<stop offset="1" stop-color="#22CAD9"/>
</linearGradient>
</defs>
</svg>
