<svg width="32" height="32" viewBox="0 0 32 32" fill="none" xmlns="http://www.w3.org/2000/svg">
<path d="M28 0C30.2091 0 32 1.79086 32 4V28C32 30.2091 30.2091 32 28 32H4C1.79086 32 0 30.2091 0 28V4C0 1.79086 1.79086 0 4 0H28Z" fill="#6C78A1"/>
<path d="M25 10.6154C24.325 10.9385 23.65 11.0462 22.8625 11.1538C23.65 10.7231 24.2125 10.0769 24.4375 9.21538C23.7625 9.64615 22.975 9.86154 22.075 10.0769C21.4 9.43077 20.3875 9 19.375 9C17.4625 9 15.775 10.6154 15.775 12.5538C15.775 12.8769 15.775 13.0923 15.8875 13.3077C12.85 13.2 10.0375 11.8 8.2375 9.64615C7.9 10.1846 7.7875 10.7231 7.7875 11.4769C7.7875 12.6615 8.4625 13.7385 9.475 14.3846C8.9125 14.3846 8.35 14.1692 7.7875 13.9538C7.7875 15.6769 9.025 17.0769 10.7125 17.4C10.375 17.5077 10.0375 17.5077 9.7 17.5077C9.475 17.5077 9.25 17.5077 9.025 17.4C9.475 18.8 10.825 19.8769 12.5125 19.8769C11.275 20.8462 9.7 21.3846 7.9 21.3846C7.5625 21.3846 7.3375 21.3846 7 21.3846C8.6875 22.3538 10.6 23 12.625 23C19.375 23 23.0875 17.6154 23.0875 12.9846C23.0875 12.8769 23.0875 12.6615 23.0875 12.5538C23.875 12.0154 24.55 11.3692 25 10.6154Z" fill="white"/>
</svg>
