<svg width="32" height="32" viewBox="0 0 32 32" fill="none" xmlns="http://www.w3.org/2000/svg">
<rect width="32" height="32" fill="white"/>
<path d="M4 0C1.79086 0 0 1.79086 0 4V28C0 30.2091 1.79086 32 4 32H28C30.2091 32 32 30.2091 32 28V4C32 1.79086 30.2091 0 28 0H4Z" fill="#6C78A1"/>
<path d="M18.7697 9.33337H21.3337V5.33337H17.9483C14.7523 5.33337 13.3337 6.74004 13.3337 9.43604V12H10.667V16H13.3337V26.6667H17.3337V16H21.015L21.3337 12H17.3337V10.5187C17.3337 9.66937 17.9483 9.33337 18.7697 9.33337Z" fill="white"/>
</svg>
