<svg width="32" height="32" viewBox="0 0 32 32" fill="none" xmlns="http://www.w3.org/2000/svg">
<rect width="32" height="32" fill="white"/>
<path d="M4 0C1.79086 0 0 1.79086 0 4V28C0 30.2091 1.79086 32 4 32H28C30.2091 32 32 30.2091 32 28V4C32 1.79086 30.2091 0 28 0H4Z" fill="#6C78A1"/>
<path d="M8.27869 24H11.623V11.4652H8.27869V24Z" fill="white"/>
<path d="M8 8.01013C8 9.12003 8.87397 10.0203 9.95082 10.0203C11.0288 10.0203 11.9016 9.12003 11.9016 8.01013C11.9016 6.90023 11.0277 6 9.95082 6C8.87397 6 8 6.90023 8 8.01013Z" fill="white"/>
<path d="M21.6557 24H25V16.2979C25 10.312 18.754 10.5296 17.1967 13.4764V11.4652H13.8525V24H17.1967V17.6141C17.1967 14.0667 21.6557 13.7761 21.6557 17.6141V24Z" fill="white"/>
</svg>
