<svg width="1022" height="817" viewBox="0 0 1022 817" fill="none" xmlns="http://www.w3.org/2000/svg">
<g opacity="0.1">
<rect width="319.413" height="3.39402" transform="matrix(-0.857493 0.514495 0.514495 0.857493 1017.23 -25.5464)" fill="url(#paint0_linear)"/>
<rect opacity="0.3" width="135.818" height="13.7808" transform="matrix(-0.857493 0.514495 0.514495 0.857493 846.463 70.8564)" fill="url(#paint1_linear)"/>
</g>
<g opacity="0.3">
<rect x="155.227" y="126.956" width="171.577" height="1.82315" transform="rotate(149.036 155.227 126.956)" fill="url(#paint2_linear)"/>
<rect opacity="0.3" x="66.3682" y="183.524" width="72.9565" height="7.40258" transform="rotate(149.036 66.3682 183.524)" fill="url(#paint3_linear)"/>
</g>
<g opacity="0.3">
<rect x="843.807" y="697.015" width="217.536" height="2.31149" transform="rotate(149.036 843.807 697.015)" fill="url(#paint4_linear)"/>
<rect opacity="0.3" x="731.146" y="768.736" width="92.4985" height="9.38543" transform="rotate(149.036 731.146 768.736)" fill="url(#paint5_linear)"/>
</g>
<circle opacity="0.4" cx="850.5" cy="245.5" r="3.5" fill="url(#paint6_linear)"/>
<circle opacity="0.4" cx="284.988" cy="624.988" r="4.98799" fill="url(#paint7_linear)"/>
<defs>
<linearGradient id="paint0_linear" x1="373.033" y1="3.39397" x2="-1.5282e-06" y2="3.3938" gradientUnits="userSpaceOnUse">
<stop stop-color="#0399ED"/>
<stop offset="1" stop-color="#7084F2" stop-opacity="0"/>
</linearGradient>
<linearGradient id="paint1_linear" x1="158.617" y1="13.7807" x2="-6.49841e-07" y2="13.7806" gradientUnits="userSpaceOnUse">
<stop stop-color="#33D9BB"/>
<stop offset="1" stop-color="#07A7E6" stop-opacity="0"/>
</linearGradient>
<linearGradient id="paint2_linear" x1="355.606" y1="128.779" x2="155.227" y2="128.779" gradientUnits="userSpaceOnUse">
<stop stop-color="#0399ED"/>
<stop offset="1" stop-color="#7084F2" stop-opacity="0"/>
</linearGradient>
<linearGradient id="paint3_linear" x1="151.572" y1="190.926" x2="66.3682" y2="190.926" gradientUnits="userSpaceOnUse">
<stop stop-color="#33D9BB"/>
<stop offset="1" stop-color="#07A7E6" stop-opacity="0"/>
</linearGradient>
<linearGradient id="paint4_linear" x1="1097.86" y1="699.327" x2="843.807" y2="699.326" gradientUnits="userSpaceOnUse">
<stop stop-color="#0399ED"/>
<stop offset="1" stop-color="#7084F2" stop-opacity="0"/>
</linearGradient>
<linearGradient id="paint5_linear" x1="839.172" y1="778.121" x2="731.145" y2="778.121" gradientUnits="userSpaceOnUse">
<stop stop-color="#33D9BB"/>
<stop offset="1" stop-color="#07A7E6" stop-opacity="0"/>
</linearGradient>
<linearGradient id="paint6_linear" x1="847" y1="242" x2="853.75" y2="248.75" gradientUnits="userSpaceOnUse">
<stop stop-color="#07A8E4" stop-opacity="0"/>
<stop offset="1" stop-color="#7083F2"/>
</linearGradient>
<linearGradient id="paint7_linear" x1="280" y1="620" x2="289.62" y2="629.62" gradientUnits="userSpaceOnUse">
<stop stop-color="#07A8E4" stop-opacity="0"/>
<stop offset="1" stop-color="#7083F2"/>
</linearGradient>
</defs>
</svg>
