<svg width="234" height="405" viewBox="0 0 234 405" fill="none" xmlns="http://www.w3.org/2000/svg">
<path d="M120 303L120 361" stroke="#E1E1FF" stroke-width="6.79538"/>
<path opacity="0.45" d="M120 303L120 361" stroke="white" stroke-width="2.71815" stroke-linecap="round" stroke-dasharray="0.68 8.15"/>
<path d="M32.9997 348C32.9998 327.753 102 323.608 102 305" stroke="#E1E1FF" stroke-width="6.79538"/>
<path opacity="0.45" d="M32.9997 348C32.9998 327.753 102 323.608 102 305" stroke="white" stroke-width="2.71815" stroke-linecap="round" stroke-dasharray="0.68 8.15"/>
<path d="M200 348C200 326.812 136 322.473 136 303" stroke="#E1E1FF" stroke-width="6.79538"/>
<path opacity="0.45" d="M200 348C200 326.812 136 322.473 136 303" stroke="white" stroke-width="2.71815" stroke-linecap="round" stroke-dasharray="0.68 8.15"/>
<path d="M98.8884 97.7079H125.361C135.273 97.7079 143.308 105.743 143.308 115.655V169.497" stroke="#E1E1FF" stroke-width="6.79538"/>
<path opacity="0.45" d="M98.8884 97.7079H125.361C135.273 97.7079 143.308 105.743 143.308 115.655V169.497" stroke="white" stroke-width="2.71815" stroke-linecap="round" stroke-dasharray="0.68 8.15"/>
<rect x="96.9998" y="358" width="46.6616" height="46.6616" rx="9.51353" fill="url(#paint0_linear_704_4706)"/>
<g opacity="0.4">
<path d="M129.444 388.713C129.444 390.188 128.195 391.433 126.657 391.433H126.32C124.878 391.248 123.821 390.003 123.869 388.62V372.577C123.821 371.194 124.878 369.995 126.32 369.764C127.858 369.58 129.252 370.64 129.444 372.116V388.713Z" fill="white"/>
<path d="M112.278 386.034C113.746 386.034 114.94 387.243 114.94 388.732C114.94 390.22 113.746 391.43 112.278 391.43C110.809 391.43 109.615 390.22 109.615 388.732C109.57 387.243 110.809 386.034 112.278 386.034ZM119.3 377.8C117.831 377.893 116.684 379.149 116.684 380.637V387.941C116.684 389.895 117.556 391.104 118.795 391.383C120.264 391.662 121.641 390.732 121.962 389.243C122.008 389.057 122.008 388.871 122.008 388.685V380.544C122.008 379.056 120.815 377.8 119.346 377.8H119.3Z" fill="white"/>
</g>
<rect x="175.525" y="346.505" width="46.6616" height="46.6616" rx="9.51353" fill="url(#paint1_linear_704_4706)"/>
<path opacity="0.4" fill-rule="evenodd" clip-rule="evenodd" d="M204.505 370.418L205.113 366.503H201.306V363.962C201.306 362.892 201.837 361.846 203.544 361.846H205.275V358.514C205.275 358.514 203.704 358.249 202.202 358.249C199.067 358.249 197.018 360.123 197.018 363.518V366.503H193.531V370.418H197.018V380.953C198.476 380.953 200.021 380.953 201.306 380.953V370.418L204.505 370.418Z" fill="white"/>
<rect x="0.178711" width="98.5426" height="205.78" rx="14.2703" fill="url(#paint2_linear_704_4706)"/>
<path d="M15.4842 4.07721C9.0505 4.07721 3.83496 9.32363 3.83496 15.7955V190.104C3.83496 196.576 9.0505 201.823 15.4842 201.823H83.9233C90.357 201.823 95.5726 196.576 95.5726 190.104V15.7955C95.5726 9.32363 90.357 4.07721 83.9233 4.07721H77.856C76.3612 4.07721 76.2267 5.49574 76.0689 7.15995C75.845 9.52151 75.5743 12.3776 71.3034 12.3776H26.6608C22.5397 12.3776 22.2785 9.52151 22.0624 7.15995C21.9102 5.49574 21.7804 4.07721 20.338 4.07721H15.4842Z" fill="url(#paint3_linear_704_4706)"/>
<g filter="url(#filter0_b_704_4706)">
<circle cx="98.7215" cy="97.8775" r="12.4286" fill="#8D70D5" fill-opacity="0.6"/>
</g>
<circle cx="98.7216" cy="97.8775" r="2.86813" fill="white"/>
<rect x="8.99976" y="346.505" width="46.6616" height="46.6616" rx="9.51353" fill="url(#paint4_linear_704_4706)"/>
<g opacity="0.4">
<path d="M27.3332 375.473L26.6589 372.835H23.7317L23.0727 375.473H20.7432L23.6397 364.512H26.8887L29.7853 375.473H27.3332ZM25.2642 366.789H25.1416L24.0995 370.935H26.3064L25.2642 366.789Z" fill="white"/>
<path d="M30.9201 375.473V364.512H35.0581C35.5791 364.512 36.044 364.596 36.4527 364.763C36.8614 364.92 37.2037 365.151 37.4795 365.454C37.7656 365.758 37.9802 366.124 38.1232 366.553C38.2662 366.983 38.3378 367.464 38.3378 367.998C38.3378 368.532 38.2662 369.014 38.1232 369.443C37.9802 369.872 37.7656 370.238 37.4795 370.542C37.2037 370.846 36.8614 371.081 36.4527 371.249C36.044 371.406 35.5791 371.484 35.0581 371.484H33.2343V375.473H30.9201ZM33.2343 369.584H34.4757C35.0172 369.584 35.3901 369.479 35.5945 369.27C35.809 369.061 35.9163 368.715 35.9163 368.234V367.763C35.9163 367.281 35.809 366.936 35.5945 366.726C35.3901 366.517 35.0172 366.412 34.4757 366.412H33.2343V369.584Z" fill="white"/>
<path d="M38.8994 375.473V373.73H41.1983V366.255H38.8994V364.512H45.796V366.255H43.4971V373.73H45.796V375.473H38.8994Z" fill="white"/>
</g>
<path d="M55.8149 191.791C55.8149 186.912 59.7701 182.957 64.6489 182.957H224.658C229.537 182.957 233.492 186.912 233.492 191.791V298.856C233.492 303.735 229.537 307.69 224.658 307.69H64.6489C59.7701 307.69 55.8149 303.735 55.8149 298.856V191.791Z" fill="#E9EBF9" fill-opacity="0.9"/>
<mask id="mask0_704_4706" style="mask-type:alpha" maskUnits="userSpaceOnUse" x="55" y="182" width="179" height="126">
<path d="M55.8149 188.957C55.8149 185.643 58.5012 182.957 61.8149 182.957H227.492C230.806 182.957 233.492 185.643 233.492 188.957V301.69C233.492 305.004 230.806 307.69 227.492 307.69H61.8149C58.5012 307.69 55.8149 305.004 55.8149 301.69V188.957Z" fill="#E9EBF9" fill-opacity="0.8"/>
</mask>
<g mask="url(#mask0_704_4706)">
<g opacity="0.3" filter="url(#filter1_f_704_4706)">
<rect x="112.191" y="162.858" width="63.8766" height="68.6333" rx="9.51353" fill="#5061DE"/>
</g>
</g>
<rect x="181.312" y="227.222" width="73.8782" height="73.8782" rx="6.79538" transform="rotate(-180 181.312 227.222)" fill="url(#paint5_linear_704_4706)"/>
<path fill-rule="evenodd" clip-rule="evenodd" d="M165.252 179.636L145.103 210.5C143.729 212.591 140.89 213.227 138.783 211.864C137.867 211.273 137.18 210.364 136.906 209.364C135.12 203.409 133.654 199.682 132.555 198.318C131.502 196.955 128.296 194.636 123.03 191.409C120.832 190 120.191 187.227 121.519 185.091C122.114 184.136 123.076 183.409 124.129 183.091L160.123 172.818C162.551 172.136 165.115 173.5 165.802 175.909C166.168 177.182 165.939 178.545 165.252 179.636Z" fill="url(#paint6_linear_704_4706)"/>
<g opacity="0.35">
<path d="M160.123 172.818C162.55 172.091 165.115 173.5 165.802 175.909C166.168 177.182 165.939 178.546 165.252 179.636L163.878 181.727C161.863 178.455 159.848 175.727 159.848 175.727C159.299 174.909 158.658 174.136 158.017 173.409L160.123 172.818Z" fill="url(#paint7_linear_704_4706)"/>
<path d="M157.101 177.818C156.23 176.545 155.223 175.455 154.124 174.545L149.819 175.773C151.559 176.636 153.208 178.682 154.399 180.227C155.681 181.955 157.65 185.909 158.291 188.318C158.429 188.818 158.566 189.318 158.658 189.773L161.588 185.273C159.528 181.091 157.101 177.818 157.101 177.818Z" fill="url(#paint8_linear_704_4706)"/>
<path d="M139.562 179.091C143.454 176.5 148.904 177.682 151.514 181.545C153.941 185.182 155.544 189.182 156.322 193.364L153.346 197.955C153.254 192.955 151.743 187.955 148.72 183.5C147.118 181.182 143.866 180.409 141.485 181.955C139.104 183.5 138.646 186.818 140.203 189.136C142.767 192.864 143.683 197.364 142.813 201.818C142.126 205.364 140.34 208.5 137.73 210.909C137.318 210.455 137.043 209.909 136.86 209.318C136.676 208.682 136.493 208.091 136.31 207.5C140.294 203 140.89 196.227 137.363 191C134.753 187.136 135.669 181.682 139.562 179.091Z" fill="url(#paint9_linear_704_4706)"/>
<path d="M145.881 185.136C149.407 190.409 150.69 196.682 149.499 202.864C149.468 203.015 149.433 203.172 149.397 203.328C149.326 203.641 149.255 203.955 149.224 204.227L145.148 210.455C144.141 212 142.401 212.727 140.706 212.5C147.392 205.818 148.583 195.136 143.088 187C142.584 186.227 142.767 185.227 143.546 184.682C144.324 184.136 145.377 184.364 145.881 185.136Z" fill="url(#paint10_linear_704_4706)"/>
<path d="M130.632 192.909C128.983 189.182 128.8 185.091 129.99 181.409L134.204 180.227C131.914 184 131.868 188.955 134.524 192.864C136.722 196.136 136.631 200 134.799 203.091C134.295 201.682 133.791 200.545 133.379 199.682C132.463 197.318 131.593 195.091 130.632 192.909Z" fill="url(#paint11_linear_704_4706)"/>
<path d="M125.96 182.591L124.129 183.091C123.03 183.409 122.114 184.091 121.518 185.091C120.19 187.227 120.831 190 122.984 191.318C124.252 192.101 125.393 192.833 126.424 193.495L126.425 193.495C126.77 193.717 127.104 193.931 127.426 194.136C125.64 190.5 125.182 186.409 125.96 182.591Z" fill="url(#paint12_linear_704_4706)"/>
</g>
<path d="M83.4623 252.206C82.9328 252.732 82.0783 252.733 81.548 252.208L79.4914 250.171C78.9617 249.646 78.1083 249.646 77.5787 250.171L76.5319 251.207C75.995 251.739 75.995 252.607 76.5319 253.139L81.5484 258.107C82.0785 258.632 82.9328 258.631 83.4623 258.106L92.2522 249.38C92.788 248.848 92.7875 247.981 92.251 247.449L91.2047 246.413C90.6744 245.888 89.8198 245.889 89.2904 246.415L83.4623 252.206Z" fill="url(#paint13_linear_704_4706)"/>
<path d="M100.344 256.464V247.927H104.185C104.576 247.927 104.927 247.992 105.236 248.122C105.555 248.245 105.824 248.424 106.044 248.661C106.264 248.889 106.431 249.166 106.545 249.492C106.659 249.819 106.717 250.177 106.717 250.569C106.717 250.968 106.659 251.331 106.545 251.657C106.431 251.975 106.264 252.253 106.044 252.489C105.824 252.718 105.555 252.897 105.236 253.027C104.927 253.15 104.576 253.211 104.185 253.211H101.958V256.464H100.344ZM101.958 251.816H104.038C104.348 251.816 104.592 251.735 104.772 251.572C104.951 251.401 105.041 251.16 105.041 250.85V250.287C105.041 249.978 104.951 249.741 104.772 249.578C104.592 249.415 104.348 249.333 104.038 249.333H101.958V251.816ZM111.189 256.611C110.626 256.611 110.116 256.522 109.66 256.342C109.211 256.155 108.824 255.877 108.498 255.51C108.18 255.143 107.935 254.691 107.764 254.153C107.593 253.606 107.507 252.974 107.507 252.257C107.507 251.539 107.593 250.903 107.764 250.349C107.935 249.786 108.18 249.317 108.498 248.942C108.824 248.559 109.211 248.269 109.66 248.074C110.116 247.878 110.626 247.78 111.189 247.78C111.955 247.78 112.591 247.943 113.097 248.269C113.602 248.595 114.006 249.089 114.308 249.749L112.926 250.483C112.803 250.1 112.604 249.794 112.326 249.566C112.049 249.329 111.67 249.211 111.189 249.211C110.585 249.211 110.104 249.415 109.745 249.823C109.395 250.23 109.219 250.801 109.219 251.535V252.881C109.219 253.623 109.395 254.193 109.745 254.593C110.104 254.984 110.585 255.18 111.189 255.18C111.67 255.18 112.061 255.05 112.363 254.789C112.673 254.528 112.897 254.206 113.036 253.822L114.345 254.593C114.035 255.229 113.623 255.726 113.109 256.085C112.595 256.436 111.955 256.611 111.189 256.611ZM115.061 256.464V255.168H116.187V249.223H115.061V247.927H118.939V249.223H117.801V255.168H118.939V256.464H115.061Z" fill="#6F77A9"/>
<path d="M83.4623 278.028C82.9328 278.554 82.0783 278.555 81.548 278.03L79.4914 275.993C78.9617 275.469 78.1083 275.469 77.5787 275.993L76.5319 277.03C75.995 277.562 75.995 278.429 76.5319 278.961L81.5484 283.929C82.0785 284.454 82.9328 284.454 83.4623 283.928L92.2522 275.202C92.788 274.67 92.7875 273.803 92.251 273.272L91.2047 272.236C90.6744 271.71 89.8198 271.711 89.2904 272.237L83.4623 278.028Z" fill="url(#paint14_linear_704_4706)"/>
<path d="M105.787 280.966H105.738C105.665 281.382 105.432 281.732 105.041 282.018C104.658 282.295 104.144 282.434 103.5 282.434C102.994 282.434 102.525 282.34 102.093 282.152C101.669 281.965 101.298 281.688 100.98 281.321C100.67 280.946 100.425 280.485 100.246 279.938C100.067 279.392 99.9769 278.76 99.9769 278.043C99.9769 277.325 100.067 276.693 100.246 276.147C100.434 275.592 100.694 275.127 101.029 274.752C101.363 274.377 101.763 274.092 102.227 273.896C102.692 273.7 103.21 273.602 103.781 273.602C104.547 273.602 105.2 273.77 105.738 274.104C106.276 274.438 106.7 274.919 107.01 275.547L105.701 276.318C105.546 275.951 105.314 275.645 105.004 275.4C104.702 275.156 104.295 275.034 103.781 275.034C103.145 275.034 102.635 275.229 102.252 275.621C101.877 276.004 101.689 276.575 101.689 277.333V278.703C101.689 279.453 101.881 280.024 102.264 280.415C102.647 280.807 103.161 281.003 103.805 281.003C104.058 281.003 104.295 280.974 104.515 280.917C104.735 280.852 104.927 280.758 105.09 280.636C105.253 280.513 105.383 280.362 105.481 280.183C105.579 280.004 105.628 279.792 105.628 279.547V278.997H103.952V277.639H107.181V282.287H105.787V280.966ZM108.746 273.749H111.853C112.407 273.749 112.909 273.839 113.357 274.018C113.814 274.198 114.201 274.467 114.519 274.826C114.845 275.176 115.094 275.621 115.265 276.159C115.445 276.689 115.535 277.309 115.535 278.018C115.535 278.728 115.445 279.351 115.265 279.89C115.094 280.42 114.845 280.864 114.519 281.223C114.201 281.573 113.814 281.838 113.357 282.018C112.909 282.197 112.407 282.287 111.853 282.287H108.746V273.749ZM111.853 280.856C112.456 280.856 112.933 280.68 113.284 280.33C113.643 279.971 113.822 279.425 113.822 278.691V277.345C113.822 276.611 113.643 276.069 113.284 275.719C112.933 275.36 112.456 275.18 111.853 275.18H110.361V280.856H111.853ZM116.873 282.287V273.749H120.714C121.105 273.749 121.456 273.814 121.766 273.945C122.084 274.067 122.353 274.247 122.573 274.483C122.793 274.711 122.961 274.989 123.075 275.315C123.189 275.641 123.246 276 123.246 276.391C123.246 276.791 123.189 277.154 123.075 277.48C122.961 277.798 122.793 278.075 122.573 278.312C122.353 278.54 122.084 278.719 121.766 278.85C121.456 278.972 121.105 279.033 120.714 279.033H118.488V282.287H116.873ZM118.488 277.639H120.567C120.877 277.639 121.122 277.557 121.301 277.394C121.481 277.223 121.57 276.982 121.57 276.673V276.11C121.57 275.8 121.481 275.564 121.301 275.4C121.122 275.237 120.877 275.156 120.567 275.156H118.488V277.639ZM126.018 282.287H124.403V273.749H128.256C128.648 273.749 128.998 273.81 129.308 273.933C129.618 274.055 129.879 274.234 130.091 274.471C130.311 274.699 130.479 274.976 130.593 275.303C130.715 275.629 130.776 275.992 130.776 276.391C130.776 276.978 130.642 277.484 130.373 277.908C130.112 278.332 129.716 278.634 129.186 278.813L130.935 282.287H129.137L127.547 278.997H126.018V282.287ZM128.097 277.639C128.407 277.639 128.652 277.557 128.831 277.394C129.011 277.223 129.1 276.982 129.1 276.673V276.11C129.1 275.8 129.011 275.564 128.831 275.4C128.652 275.237 128.407 275.156 128.097 275.156H126.018V277.639H128.097Z" fill="#6F77A9"/>
<path d="M158.543 252.206C158.013 252.732 157.159 252.733 156.629 252.208L154.572 250.171C154.042 249.646 153.189 249.646 152.659 250.171L151.612 251.207C151.076 251.739 151.076 252.607 151.612 253.139L156.629 258.107C157.159 258.632 158.013 258.631 158.543 258.106L167.333 249.38C167.869 248.848 167.868 247.981 167.332 247.449L166.285 246.413C165.755 245.888 164.9 245.889 164.371 246.415L158.543 252.206Z" fill="url(#paint15_linear_704_4706)"/>
<path d="M180.598 252.856H177.039V256.464H175.424V247.927H177.039V251.425H180.598V247.927H182.213V256.464H180.598V252.856ZM183.555 256.464V255.168H184.681V249.223H183.555V247.927H187.433V249.223H186.295V255.168H187.433V256.464H183.555ZM188.777 256.464V247.927H192.617C193.009 247.927 193.359 247.992 193.669 248.122C193.987 248.245 194.256 248.424 194.476 248.661C194.697 248.889 194.864 249.166 194.978 249.492C195.092 249.819 195.149 250.177 195.149 250.569C195.149 250.968 195.092 251.331 194.978 251.657C194.864 251.975 194.697 252.253 194.476 252.489C194.256 252.718 193.987 252.897 193.669 253.027C193.359 253.15 193.009 253.211 192.617 253.211H190.391V256.464H188.777ZM190.391 251.816H192.47C192.78 251.816 193.025 251.735 193.204 251.572C193.384 251.401 193.473 251.16 193.473 250.85V250.287C193.473 249.978 193.384 249.741 193.204 249.578C193.025 249.415 192.78 249.333 192.47 249.333H190.391V251.816ZM200.79 256.464L200.105 254.287H197.072L196.399 256.464H194.76L197.622 247.927H199.628L202.466 256.464H200.79ZM198.613 249.395H198.552L197.463 252.905H199.714L198.613 249.395ZM208.834 256.464L208.149 254.287H205.116L204.443 256.464H202.804L205.666 247.927H207.672L210.51 256.464H208.834ZM206.657 249.395H206.596L205.507 252.905H207.758L206.657 249.395Z" fill="#6F77A9"/>
<path d="M158.543 278.028C158.013 278.554 157.159 278.555 156.629 278.03L154.572 275.993C154.042 275.469 153.189 275.469 152.659 275.993L151.612 277.03C151.076 277.562 151.076 278.429 151.612 278.961L156.629 283.929C157.159 284.454 158.013 284.454 158.543 283.928L167.333 275.202C167.869 274.67 167.868 273.803 167.332 273.272L166.285 272.236C165.755 271.71 164.9 271.711 164.371 272.237L158.543 278.028Z" fill="url(#paint16_linear_704_4706)"/>
<path d="M178.739 282.434C178.177 282.434 177.667 282.344 177.21 282.165C176.762 281.977 176.374 281.7 176.048 281.333C175.73 280.966 175.486 280.513 175.314 279.975C175.143 279.429 175.057 278.797 175.057 278.079C175.057 277.362 175.143 276.726 175.314 276.171C175.486 275.608 175.73 275.14 176.048 274.764C176.374 274.381 176.762 274.092 177.21 273.896C177.667 273.7 178.177 273.602 178.739 273.602C179.506 273.602 180.142 273.766 180.647 274.092C181.153 274.418 181.557 274.911 181.858 275.572L180.476 276.306C180.354 275.922 180.154 275.617 179.877 275.388C179.599 275.152 179.22 275.034 178.739 275.034C178.136 275.034 177.655 275.237 177.296 275.645C176.945 276.053 176.77 276.624 176.77 277.358V278.703C176.77 279.445 176.945 280.016 177.296 280.415C177.655 280.807 178.136 281.003 178.739 281.003C179.22 281.003 179.612 280.872 179.913 280.611C180.223 280.35 180.448 280.028 180.586 279.645L181.895 280.415C181.585 281.052 181.173 281.549 180.66 281.908C180.146 282.258 179.506 282.434 178.739 282.434ZM186.126 282.434C185.563 282.434 185.054 282.344 184.597 282.165C184.149 281.977 183.761 281.7 183.435 281.333C183.117 280.966 182.872 280.513 182.701 279.975C182.53 279.429 182.444 278.797 182.444 278.079C182.444 277.362 182.53 276.726 182.701 276.171C182.872 275.608 183.117 275.14 183.435 274.764C183.761 274.381 184.149 274.092 184.597 273.896C185.054 273.7 185.563 273.602 186.126 273.602C186.892 273.602 187.529 273.766 188.034 274.092C188.54 274.418 188.943 274.911 189.245 275.572L187.863 276.306C187.741 275.922 187.541 275.617 187.264 275.388C186.986 275.152 186.607 275.034 186.126 275.034C185.523 275.034 185.041 275.237 184.683 275.645C184.332 276.053 184.157 276.624 184.157 277.358V278.703C184.157 279.445 184.332 280.016 184.683 280.415C185.041 280.807 185.523 281.003 186.126 281.003C186.607 281.003 186.998 280.872 187.3 280.611C187.61 280.35 187.834 280.028 187.973 279.645L189.282 280.415C188.972 281.052 188.56 281.549 188.046 281.908C187.533 282.258 186.892 282.434 186.126 282.434ZM190.353 282.287V273.749H194.194C194.585 273.749 194.936 273.814 195.246 273.945C195.564 274.067 195.833 274.247 196.053 274.483C196.273 274.711 196.441 274.989 196.555 275.315C196.669 275.641 196.726 276 196.726 276.391C196.726 276.791 196.669 277.154 196.555 277.48C196.441 277.798 196.273 278.075 196.053 278.312C195.833 278.54 195.564 278.719 195.246 278.85C194.936 278.972 194.585 279.033 194.194 279.033H191.968V282.287H190.353ZM191.968 277.639H194.047C194.357 277.639 194.602 277.557 194.781 277.394C194.961 277.223 195.05 276.982 195.05 276.673V276.11C195.05 275.8 194.961 275.564 194.781 275.4C194.602 275.237 194.357 275.156 194.047 275.156H191.968V277.639ZM202.367 282.287L201.682 280.11H198.649L197.976 282.287H196.337L199.199 273.749H201.205L204.043 282.287H202.367ZM200.19 275.217H200.129L199.04 278.728H201.291L200.19 275.217Z" fill="#6F77A9"/>
<g opacity="0.3">
<path d="M62.6876 43.1093C62.5019 43.1093 62.3278 43.0629 62.1536 42.9816C57.7075 40.6831 53.8417 39.6963 49.2215 39.6963C44.6128 39.6963 40.2711 40.7992 36.2893 42.97C35.7204 43.2718 35.0239 43.0745 34.7105 42.5057C34.4087 41.9368 34.606 41.2403 35.1748 40.9269C39.5049 38.5703 44.2297 37.3746 49.2215 37.3746C54.1668 37.3746 58.4853 38.4658 63.2216 40.9152C63.7905 41.2055 64.011 41.9136 63.7208 42.4824C63.5118 42.8771 63.1055 43.1093 62.6876 43.1093ZM29.4633 55.2985C29.2311 55.2985 28.999 55.2289 28.79 55.0896C28.2676 54.7181 28.1399 53.9983 28.5114 53.4759C30.8099 50.2255 33.747 47.6716 37.2296 45.8722C44.5315 42.0993 53.865 42.0877 61.1785 45.849C64.6495 47.6367 67.5749 50.1674 69.8851 53.3947C70.2565 53.9171 70.1405 54.6368 69.6181 55.0083C69.0957 55.3798 68.3643 55.2637 67.9928 54.7413C65.9033 51.8159 63.2565 49.5173 60.1221 47.9153C53.4587 44.4907 44.9494 44.5024 38.2976 47.9386C35.1516 49.5638 32.4932 51.8739 30.4152 54.8226C30.1831 55.136 29.8232 55.2985 29.4633 55.2985ZM43.9859 83.3105C43.6841 83.3105 43.3938 83.1944 43.1617 82.9622C41.1534 80.9307 40.0621 79.6421 38.4949 76.8444C36.8929 73.9886 36.0455 70.4944 36.0455 66.7564C36.0455 59.8608 41.9428 54.2421 49.1982 54.2421C56.4537 54.2421 62.351 59.8492 62.351 66.7564C62.351 67.3949 61.8286 67.9173 61.1901 67.9173C60.5516 67.9173 60.0292 67.3949 60.0292 66.7564C60.0292 61.1377 55.1768 56.5639 49.1982 56.5639C43.2313 56.5639 38.3672 61.1377 38.3672 66.7564C38.3672 70.0997 39.1102 73.1876 40.5149 75.7067C42.0124 78.3768 43.0108 79.526 44.7985 81.3254C45.2513 81.7781 45.2513 82.5211 44.7869 82.9622C44.5779 83.206 44.2761 83.3105 43.9859 83.3105ZM60.6213 79.0152C57.8584 79.0152 55.4321 78.3187 53.4238 76.9605C49.976 74.6155 47.9097 70.8078 47.9097 66.768C47.9097 66.1295 48.4321 65.6071 49.0705 65.6071C49.709 65.6071 50.2314 66.1295 50.2314 66.768C50.2314 70.03 51.9147 73.118 54.7356 75.0334C56.3725 76.1479 58.2995 76.6935 60.6213 76.6935C61.1785 76.6935 62.1188 76.6354 63.0475 76.4729C63.6744 76.3568 64.278 76.7864 64.3941 77.4132C64.5102 78.0401 64.0807 78.6438 63.4538 78.7598C62.0956 79.0036 60.9463 79.0152 60.6213 79.0152ZM55.9429 83.8097C55.8385 83.8097 55.734 83.7981 55.6411 83.7632C51.9379 82.7533 49.5233 81.3834 47.0158 78.8875C43.7769 75.6603 41.9892 71.3535 41.9892 66.768C41.9892 62.9951 45.1932 59.9304 49.1402 59.9304C53.0872 59.9304 56.2912 62.9951 56.2912 66.768C56.2912 69.2523 58.462 71.2838 61.1204 71.2838C63.7789 71.2838 65.9497 69.2639 65.9497 66.768C65.9497 58.015 58.404 50.8988 49.1286 50.8988C42.5232 50.8988 36.4982 54.5672 33.7818 60.2555C32.8763 62.1361 32.4236 64.3301 32.4236 66.768C32.4236 68.579 32.5861 71.4347 33.9675 75.1379C34.1881 75.7416 33.8863 76.4033 33.2826 76.6354C32.679 76.856 32.0173 76.5542 31.7851 75.9505C30.6474 72.8974 30.0902 69.9024 30.0902 66.768C30.0902 63.9819 30.6242 61.4512 31.6806 59.2571C34.7801 52.7794 41.6293 48.5886 49.117 48.5886C59.6693 48.5886 68.2598 56.7496 68.2598 66.7796C68.2598 70.5524 65.0442 73.6172 61.1088 73.6172C57.1735 73.6172 53.9578 70.5524 53.9578 66.7796C53.9578 64.2953 51.787 62.2638 49.1286 62.2638C46.4702 62.2638 44.2993 64.2837 44.2993 66.7796C44.2993 70.7382 45.8433 74.4646 48.641 77.2507C50.8351 79.4332 52.9711 80.6405 56.2448 81.5343C56.86 81.7085 57.2315 82.347 57.0574 82.9622C56.9181 83.473 56.4537 83.8097 55.9429 83.8097Z" fill="#7287FF"/>
</g>
<rect opacity="0.1" x="37.8118" y="22.4247" width="23.7838" height="3.39769" rx="1.69884" fill="#EDEFFA"/>
<rect opacity="0.1" x="35.0935" y="95.8148" width="29.2201" height="4.75676" rx="2.37838" fill="#EDEFFA"/>
<rect opacity="0.1" x="26.9392" y="105.328" width="45.529" height="4.75676" rx="2.37838" fill="#EDEFFA"/>
<g opacity="0.1" filter="url(#filter2_f_704_4706)">
<rect x="14.0281" y="129.112" width="69.3129" height="50.9653" rx="3.39769" fill="#2D116B"/>
</g>
<rect opacity="0.4" x="14.0281" y="126.394" width="69.3129" height="42.8109" rx="3.39769" fill="url(#paint17_linear_704_4706)"/>
<rect opacity="0.1" x="20.144" y="152.896" width="4.75676" height="4.75676" rx="2.37838" fill="#EDEFFA"/>
<rect opacity="0.1" x="25.5803" y="152.896" width="4.75676" height="4.75676" rx="2.37838" fill="#EDEFFA"/>
<rect opacity="0.1" x="31.0166" y="152.896" width="4.75676" height="4.75676" rx="2.37838" fill="#EDEFFA"/>
<rect opacity="0.1" x="40.53" y="152.896" width="4.75676" height="4.75676" rx="2.37838" fill="#EDEFFA"/>
<rect opacity="0.1" x="45.9663" y="152.896" width="4.75676" height="4.75676" rx="2.37838" fill="#EDEFFA"/>
<rect opacity="0.1" x="51.4026" y="152.896" width="4.75676" height="4.75676" rx="2.37838" fill="#EDEFFA"/>
<rect opacity="0.1" x="60.2366" y="152.896" width="4.75676" height="4.75676" rx="2.37838" fill="#EDEFFA"/>
<rect opacity="0.1" x="65.6729" y="152.896" width="4.75676" height="4.75676" rx="2.37838" fill="#EDEFFA"/>
<rect opacity="0.1" x="71.1094" y="152.896" width="4.75676" height="4.75676" rx="2.37838" fill="#EDEFFA"/>
<rect opacity="0.1" x="57.5186" y="154.935" width="1.35908" height="0.679538" fill="#C4C4C4"/>
<rect opacity="0.1" x="37.1323" y="154.935" width="1.35908" height="0.679538" fill="#C4C4C4"/>
<path opacity="0.3" fill-rule="evenodd" clip-rule="evenodd" d="M25.2406 137.267H21.5031C20.7525 137.267 20.144 137.875 20.144 138.626V141.004H20.1441L23.5417 141.004L23.5417 139.985C23.5417 139.234 24.1502 138.626 24.9008 138.626H25.2406V137.267ZM20.144 144.062V141.684H20.1441H23.5417L23.5417 142.703C23.5417 143.454 24.1502 144.062 24.9008 144.062L25.2406 144.062V145.421H21.5031C20.7525 145.421 20.144 144.813 20.144 144.062ZM25.9201 145.421H29.6576C30.4082 145.421 31.0166 144.813 31.0166 144.062V143.043H27.619C27.6047 143.043 27.5906 143.042 27.5768 143.04C27.4268 143.628 26.8941 144.062 26.2599 144.062L25.9201 144.062V145.421ZM27.619 142.363H31.0166V140.325H27.619V142.363ZM27.619 139.645H31.0166V138.626C31.0166 137.875 30.4082 137.267 29.6576 137.267H25.9201V138.626H26.2599C26.8941 138.626 27.4268 139.06 27.5768 139.648C27.5906 139.646 27.6047 139.645 27.619 139.645ZM24.9008 139.305C24.5255 139.305 24.2213 139.61 24.2213 139.985V142.703C24.2213 143.078 24.5255 143.383 24.9008 143.383H26.2599C26.6352 143.383 26.9394 143.078 26.9394 142.703V139.985C26.9394 139.61 26.6352 139.305 26.2599 139.305H25.5804H24.9008Z" fill="#FFE895"/>
<path opacity="0.1" fill-rule="evenodd" clip-rule="evenodd" d="M69.4105 138.604C68.6634 139.451 67.5704 139.985 66.3526 139.985C64.1008 139.985 62.2754 138.159 62.2754 135.908C62.2754 133.656 64.1008 131.83 66.3526 131.83C67.5704 131.83 68.6634 132.364 69.4105 133.211C70.1576 132.364 71.2507 131.83 72.4685 131.83C74.7202 131.83 76.5457 133.656 76.5457 135.908C76.5457 138.159 74.7202 139.985 72.4685 139.985C71.2507 139.985 70.1576 139.451 69.4105 138.604Z" fill="#EDEFFA"/>
<defs>
<filter id="filter0_b_704_4706" x="82.5644" y="81.7203" width="32.3143" height="32.3143" filterUnits="userSpaceOnUse" color-interpolation-filters="sRGB">
<feFlood flood-opacity="0" result="BackgroundImageFix"/>
<feGaussianBlur in="BackgroundImage" stdDeviation="1.86429"/>
<feComposite in2="SourceAlpha" operator="in" result="effect1_backgroundBlur_704_4706"/>
<feBlend mode="normal" in="SourceGraphic" in2="effect1_backgroundBlur_704_4706" result="shape"/>
</filter>
<filter id="filter1_f_704_4706" x="98.5999" y="149.267" width="91.058" height="95.8148" filterUnits="userSpaceOnUse" color-interpolation-filters="sRGB">
<feFlood flood-opacity="0" result="BackgroundImageFix"/>
<feBlend mode="normal" in="SourceGraphic" in2="BackgroundImageFix" result="shape"/>
<feGaussianBlur stdDeviation="6.79538" result="effect1_foregroundBlur_704_4706"/>
</filter>
<filter id="filter2_f_704_4706" x="5.87362" y="120.958" width="85.6217" height="67.2742" filterUnits="userSpaceOnUse" color-interpolation-filters="sRGB">
<feFlood flood-opacity="0" result="BackgroundImageFix"/>
<feBlend mode="normal" in="SourceGraphic" in2="BackgroundImageFix" result="shape"/>
<feGaussianBlur stdDeviation="4.07723" result="effect1_foregroundBlur_704_4706"/>
</filter>
<linearGradient id="paint0_linear_704_4706" x1="156.039" y1="409.685" x2="137.363" y2="343.684" gradientUnits="userSpaceOnUse">
<stop stop-color="#9474D9"/>
<stop offset="1" stop-color="#032B8D"/>
</linearGradient>
<linearGradient id="paint1_linear_704_4706" x1="234.564" y1="398.191" x2="215.888" y2="332.189" gradientUnits="userSpaceOnUse">
<stop stop-color="#9474D9"/>
<stop offset="1" stop-color="#032B8D"/>
</linearGradient>
<linearGradient id="paint2_linear_704_4706" x1="140.082" y1="301.035" x2="11.3171" y2="21.1168" gradientUnits="userSpaceOnUse">
<stop stop-color="#9474D9"/>
<stop offset="1" stop-color="#032B8D"/>
</linearGradient>
<linearGradient id="paint3_linear_704_4706" x1="65.6729" y1="241.915" x2="-18.5389" y2="-28.3649" gradientUnits="userSpaceOnUse">
<stop stop-color="#9474D9"/>
<stop offset="1" stop-color="#032B8D"/>
</linearGradient>
<linearGradient id="paint4_linear_704_4706" x1="68.0387" y1="398.191" x2="49.3631" y2="332.189" gradientUnits="userSpaceOnUse">
<stop stop-color="#9474D9"/>
<stop offset="1" stop-color="#032B8D"/>
</linearGradient>
<linearGradient id="paint5_linear_704_4706" x1="388.04" y1="414.244" x2="427.807" y2="300.125" gradientUnits="userSpaceOnUse">
<stop stop-color="#E7E1F4"/>
<stop offset="1" stop-color="#FBFCFF"/>
</linearGradient>
<linearGradient id="paint6_linear_704_4706" x1="153.804" y1="219.227" x2="163.963" y2="176.92" gradientUnits="userSpaceOnUse">
<stop stop-color="#292D66"/>
<stop offset="1" stop-color="#6572D8"/>
</linearGradient>
<linearGradient id="paint7_linear_704_4706" x1="162.172" y1="190.958" x2="145.798" y2="166.393" gradientUnits="userSpaceOnUse">
<stop stop-color="#151833"/>
<stop offset="1" stop-color="#191E46"/>
</linearGradient>
<linearGradient id="paint8_linear_704_4706" x1="162.172" y1="190.958" x2="145.798" y2="166.393" gradientUnits="userSpaceOnUse">
<stop stop-color="#151833"/>
<stop offset="1" stop-color="#191E46"/>
</linearGradient>
<linearGradient id="paint9_linear_704_4706" x1="162.172" y1="190.958" x2="145.798" y2="166.393" gradientUnits="userSpaceOnUse">
<stop stop-color="#151833"/>
<stop offset="1" stop-color="#191E46"/>
</linearGradient>
<linearGradient id="paint10_linear_704_4706" x1="162.172" y1="190.958" x2="145.798" y2="166.393" gradientUnits="userSpaceOnUse">
<stop stop-color="#151833"/>
<stop offset="1" stop-color="#191E46"/>
</linearGradient>
<linearGradient id="paint11_linear_704_4706" x1="162.172" y1="190.958" x2="145.798" y2="166.393" gradientUnits="userSpaceOnUse">
<stop stop-color="#151833"/>
<stop offset="1" stop-color="#191E46"/>
</linearGradient>
<linearGradient id="paint12_linear_704_4706" x1="162.172" y1="190.958" x2="145.798" y2="166.393" gradientUnits="userSpaceOnUse">
<stop stop-color="#151833"/>
<stop offset="1" stop-color="#191E46"/>
</linearGradient>
<linearGradient id="paint13_linear_704_4706" x1="88.8079" y1="251.41" x2="79.4426" y2="258.293" gradientUnits="userSpaceOnUse">
<stop stop-color="#5587F3"/>
<stop offset="1" stop-color="#13C2D8"/>
</linearGradient>
<linearGradient id="paint14_linear_704_4706" x1="88.8079" y1="277.233" x2="79.4426" y2="284.115" gradientUnits="userSpaceOnUse">
<stop stop-color="#5587F3"/>
<stop offset="1" stop-color="#13C2D8"/>
</linearGradient>
<linearGradient id="paint15_linear_704_4706" x1="163.888" y1="251.41" x2="154.523" y2="258.293" gradientUnits="userSpaceOnUse">
<stop stop-color="#5587F3"/>
<stop offset="1" stop-color="#13C2D8"/>
</linearGradient>
<linearGradient id="paint16_linear_704_4706" x1="163.888" y1="277.233" x2="154.523" y2="284.115" gradientUnits="userSpaceOnUse">
<stop stop-color="#5587F3"/>
<stop offset="1" stop-color="#13C2D8"/>
</linearGradient>
<linearGradient id="paint17_linear_704_4706" x1="72.4683" y1="175.321" x2="90.0762" y2="94.3044" gradientUnits="userSpaceOnUse">
<stop stop-color="#BD9EFF"/>
<stop offset="1" stop-color="#1F48AB"/>
</linearGradient>
</defs>
</svg>
