<svg width="612" height="118" viewBox="0 0 612 118" fill="none" xmlns="http://www.w3.org/2000/svg">
<path fill-rule="evenodd" clip-rule="evenodd" d="M110.943 31.4L66.9428 99.3C63.9428 103.9 57.7428 105.3 53.1428 102.3C51.1428 101 49.6428 99 49.0428 96.8C45.1428 83.7 41.9428 75.5 39.5428 72.5C37.2428 69.5 30.2428 64.4 18.7428 57.3C13.9428 54.2 12.5428 48.1 15.4428 43.4C16.7428 41.3 18.8428 39.7 21.1428 39L99.7428 16.4C105.043 14.9 110.643 17.9 112.143 23.2C112.943 26 112.443 29 110.943 31.4Z" fill="url(#paint0_linear_1712_9684)"/>
<g opacity="0.35">
<path d="M99.7426 16.4C105.043 14.8 110.643 17.9 112.143 23.2C112.943 26 112.443 29 110.943 31.4L107.943 36C103.543 28.8 99.1426 22.8 99.1426 22.8C97.9426 21 96.5426 19.3 95.1426 17.7L99.7426 16.4Z" fill="url(#paint1_linear_1712_9684)"/>
<path d="M93.1422 27.4C91.2422 24.6 89.0422 22.2 86.6422 20.2L77.2422 22.9C81.0422 24.8 84.6422 29.3 87.2422 32.7C90.0422 36.5 94.3422 45.2 95.7422 50.5C96.0422 51.5999 96.3422 52.7 96.5422 53.7L102.942 43.7999C98.4422 34.5999 93.1422 27.4 93.1422 27.4Z" fill="url(#paint2_linear_1712_9684)"/>
<path d="M54.8427 30.2C63.3427 24.5 75.2427 27.1 80.9427 35.6C86.2427 43.6 89.7427 52.4 91.4427 61.6L84.9427 71.7C84.7427 60.7 81.4427 49.7 74.8427 39.9C71.3427 34.8 64.2427 33.1 59.0427 36.5C53.8427 39.9 52.8427 47.2 56.2427 52.3C61.8427 60.5 63.8427 70.4 61.9427 80.2C60.4427 88 56.5427 94.9 50.8427 100.2C49.9427 99.2 49.3427 98 48.9427 96.7C48.5427 95.3 48.1427 94 47.7427 92.7C56.4427 82.8 57.7427 67.9 50.0427 56.4C44.3427 47.9 46.3427 35.9 54.8427 30.2Z" fill="url(#paint3_linear_1712_9684)"/>
<path d="M68.6428 43.5C76.3428 55.1 79.1428 68.9 76.5428 82.5C76.4761 82.8334 76.3983 83.1778 76.3205 83.5223C76.165 84.2111 76.0094 84.9 75.9428 85.5L67.0428 99.2C64.8428 102.6 61.0428 104.2 57.3428 103.7C71.9428 89 74.5428 65.5 62.5428 47.6C61.4428 45.9 61.8428 43.7 63.5428 42.5C65.2428 41.3 67.5428 41.8 68.6428 43.5Z" fill="url(#paint4_linear_1712_9684)"/>
<path d="M35.3426 60.5999C31.7426 52.3999 31.3426 43.3999 33.9426 35.2999L43.1426 32.7C38.1426 41 38.0426 51.8999 43.8426 60.5C48.6426 67.7 48.4426 76.2 44.4426 83C43.3426 79.8999 42.2426 77.3999 41.3426 75.5C39.3426 70.2999 37.4426 65.3999 35.3426 60.5999Z" fill="url(#paint5_linear_1712_9684)"/>
<path d="M25.1422 37.8999L21.1422 38.9999C18.7422 39.6999 16.7422 41.1999 15.4422 43.3999C12.5422 48.0999 13.9422 54.1999 18.6422 57.0999C21.4126 58.822 23.9027 60.432 26.1544 61.888L26.1564 61.8892C26.9113 62.3773 27.6394 62.8481 28.3422 63.2999C24.4422 55.2999 23.4422 46.2999 25.1422 37.8999Z" fill="url(#paint6_linear_1712_9684)"/>
</g>
<path d="M147.677 86.9966C147.182 86.9966 146.769 86.8314 146.438 86.5009C146.108 86.1705 145.942 85.7574 145.942 85.2617V41.3924C145.942 40.8967 146.108 40.4837 146.438 40.1532C146.769 39.8227 147.182 39.6575 147.677 39.6575H154.121C154.617 39.6575 155.03 39.8227 155.361 40.1532C155.691 40.4837 155.856 40.8967 155.856 41.3924V45.6885C157.454 43.3202 159.326 41.5577 161.474 40.401C163.677 39.1893 165.991 38.5835 168.414 38.5835C171.443 38.5835 174.115 39.2995 176.428 40.7315C178.796 42.1635 180.669 44.2014 182.046 46.8451C183.588 44.2565 185.653 42.2461 188.242 40.8141C190.831 39.327 193.612 38.5835 196.586 38.5835C201.378 38.5835 205.178 40.1807 207.987 43.3752C210.796 46.5147 212.201 50.7005 212.201 55.9329V85.2617C212.201 85.7574 212.035 86.1705 211.705 86.5009C211.374 86.8314 210.961 86.9966 210.466 86.9966H204.022C203.526 86.9966 203.113 86.8314 202.782 86.5009C202.452 86.1705 202.287 85.7574 202.287 85.2617V57.1722C202.287 54.253 201.626 52.0224 200.304 50.4802C198.982 48.883 197.082 48.0844 194.603 48.0844C191.354 48.0844 188.765 49.1584 186.837 51.3064C184.965 53.3993 184.028 56.2909 184.028 59.9811V85.2617C184.028 85.7574 183.863 86.1705 183.533 86.5009C183.202 86.8314 182.789 86.9966 182.294 86.9966H175.849C175.354 86.9966 174.941 86.8314 174.61 86.5009C174.28 86.1705 174.115 85.7574 174.115 85.2617V57.1722C174.115 54.253 173.454 52.0224 172.132 50.4802C170.81 48.883 168.91 48.0844 166.431 48.0844C163.182 48.0844 160.593 49.1584 158.665 51.3064C156.793 53.3993 155.856 56.2909 155.856 59.9811V85.2617C155.856 85.7574 155.691 86.1705 155.361 86.5009C155.03 86.8314 154.617 86.9966 154.121 86.9966H147.677Z" fill="#1C1134"/>
<path d="M239.309 86.9966C235.729 86.9966 232.424 86.1154 229.395 84.3529C226.421 82.5904 224.053 80.1946 222.29 77.1653C220.528 74.136 219.646 70.8314 219.646 67.2513V58.3288C219.646 54.7487 220.528 51.4441 222.29 48.4148C224.053 45.3856 226.421 42.9897 229.395 41.2272C232.424 39.4647 235.729 38.5835 239.309 38.5835C242.889 38.5835 246.166 39.4647 249.14 41.2272C252.17 42.9897 254.566 45.3856 256.328 48.4148C258.091 51.4441 258.972 54.7487 258.972 58.3288V63.8641C258.972 64.8555 258.614 65.7092 257.898 66.4252C257.237 67.0861 256.411 67.4166 255.419 67.4166H229.56V67.8297C229.56 70.5285 230.497 72.8417 232.369 74.7694C234.297 76.6421 236.61 77.5784 239.309 77.5784H252.445C252.941 77.5784 253.354 77.7436 253.684 78.0741C254.015 78.4045 254.18 78.8176 254.18 79.3133V85.2617C254.18 85.7574 254.015 86.1705 253.684 86.5009C253.354 86.8314 252.941 86.9966 252.445 86.9966H239.309ZM249.058 58.494V57.7505C249.058 55.0517 248.094 52.766 246.166 50.8933C244.294 48.9656 242.008 48.0017 239.309 48.0017C236.61 48.0017 234.297 48.9656 232.369 50.8933C230.497 52.766 229.56 55.0517 229.56 57.7505V58.494H249.058Z" fill="#1C1134"/>
<path d="M284.341 86.9966C280.045 86.9966 276.548 85.6748 273.849 83.0311C271.205 80.3873 269.884 76.9175 269.884 72.6214V48.9105H264.183C263.687 48.9105 263.274 48.7453 262.944 48.4148C262.613 48.0844 262.448 47.6713 262.448 47.1756V41.3924C262.448 40.8967 262.613 40.4837 262.944 40.1532C263.274 39.8227 263.687 39.6575 264.183 39.6575H269.884V30.7349C269.884 30.2392 270.049 29.8262 270.379 29.4957C270.71 29.1652 271.123 29 271.619 29H278.063C278.558 29 278.971 29.1652 279.302 29.4957C279.632 29.8262 279.798 30.2392 279.798 30.7349V39.6575H293.76C294.255 39.6575 294.668 39.8227 294.999 40.1532C295.329 40.4837 295.495 40.8967 295.495 41.3924V47.2582C295.495 47.7539 295.329 48.167 294.999 48.4974C294.668 48.8279 294.255 48.9931 293.76 48.9931H279.798V72.2083C279.798 73.8606 280.266 75.1825 281.202 76.1739C282.193 77.1653 283.488 77.661 285.085 77.661L291.76 77.7436C292.255 77.7436 292.668 77.9088 292.999 78.2393C293.329 78.5698 293.495 78.9829 293.495 79.4786V85.2617C293.495 85.7574 293.329 86.1705 292.999 86.5009C292.668 86.8314 292.255 86.9966 291.76 86.9966H284.341Z" fill="#1C1134"/>
<path d="M314.866 88.0706C310.239 88.0706 306.466 86.7763 303.547 84.1877C300.683 81.544 299.251 78.1292 299.251 73.9433C299.251 70.1429 300.573 67.0035 303.217 64.525C305.86 61.9914 309.578 60.3391 314.37 59.568C315.582 59.4579 316.738 59.2926 317.84 59.0723C321.695 58.6317 324.036 58.3012 324.862 58.0809C326.9 57.7505 327.919 56.5938 327.919 54.6111C327.919 52.5732 327.065 50.9484 325.358 49.7367C323.706 48.4699 321.613 47.8365 319.079 47.8365C314.618 47.8365 311.368 49.4613 309.33 52.7109C308.89 53.4269 308.366 53.7849 307.761 53.7849C307.32 53.7849 306.962 53.6747 306.687 53.4544L302.06 50.315C301.564 49.9845 301.317 49.5164 301.317 48.9105C301.317 48.7453 301.372 48.4974 301.482 48.167C303.079 45.1377 305.447 42.7969 308.587 41.1446C311.726 39.4372 315.279 38.5835 319.244 38.5835C322.879 38.5835 326.074 39.272 328.828 40.6489C331.582 42.0258 333.702 43.9811 335.189 46.5147C336.731 49.0482 337.502 51.9673 337.502 55.272V85.2617C337.502 85.7574 337.337 86.1705 337.007 86.5009C336.676 86.8314 336.263 86.9966 335.768 86.9966H330.15C329.654 86.9966 329.241 86.8589 328.91 86.5836C328.58 86.2531 328.415 85.8125 328.415 85.2617V82.0397C324.614 86.0603 320.098 88.0706 314.866 88.0706ZM315.609 79.2307C317.757 79.2307 319.795 78.6799 321.723 77.5784C323.65 76.4768 325.193 75.0448 326.349 73.2823C327.561 71.4648 328.167 69.5646 328.167 67.5818V65.9295L321.971 66.8383C318.611 67.2238 316.435 67.5267 315.444 67.747C310.928 68.5732 308.669 70.5285 308.669 73.6128C308.669 75.3202 309.303 76.6971 310.57 77.7436C311.836 78.735 313.516 79.2307 315.609 79.2307Z" fill="#1C1134"/>
<path d="M347.955 86.9966C347.459 86.9966 347.046 86.8314 346.716 86.5009C346.385 86.1705 346.22 85.7574 346.22 85.2617V79.1481C346.22 78.6524 346.385 78.2393 346.716 77.9088C347.046 77.5784 347.459 77.4131 347.955 77.4131H352.234V48.9931H345.129C344.633 48.9931 344.22 48.8279 343.89 48.4974C343.559 48.167 343.394 47.7539 343.394 47.2582V41.3924C343.394 40.8967 343.559 40.4837 343.89 40.1532C344.22 39.8227 344.633 39.6575 345.129 39.6575H357.934C358.926 39.6575 359.752 40.0155 360.413 40.7315C361.129 41.3924 361.487 42.2186 361.487 43.21V46.1842L365.948 42.6317C367.601 41.3098 369.033 40.401 370.244 39.9053C371.456 39.3546 372.888 39.0792 374.54 39.0792H377.101C377.597 39.0792 378.01 39.2444 378.341 39.5749C378.671 39.9054 378.836 40.3184 378.836 40.8141V47.1756C378.836 47.6713 378.671 48.0844 378.341 48.4148C378.01 48.7453 377.597 48.9105 377.101 48.9105H374.953C373.521 48.9105 372.282 49.1584 371.236 49.6541C370.189 50.1498 368.592 51.2513 366.444 52.9587L361.9 56.5938V77.4131H370.079C370.575 77.4131 370.988 77.5784 371.318 77.9088C371.649 78.2393 371.814 78.6524 371.814 79.1481V85.2617C371.814 85.7574 371.649 86.1705 371.318 86.5009C370.988 86.8314 370.575 86.9966 370.079 86.9966H347.955Z" fill="#1C1134"/>
<path d="M401.327 88.0706C397.747 88.0706 394.443 87.2169 391.413 85.5095C388.439 83.7471 386.071 81.3787 384.308 78.4045C382.546 75.4304 381.665 72.2083 381.665 68.7384V57.9157C381.665 54.4458 382.546 51.2238 384.308 48.2496C386.071 45.2754 388.439 42.9346 391.413 41.2272C394.443 39.4647 397.747 38.5835 401.327 38.5835C404.907 38.5835 408.185 39.4647 411.159 41.2272C414.188 42.9346 416.584 45.2754 418.346 48.2496C420.109 51.2238 420.99 54.4458 420.99 57.9157V68.7384C420.99 72.2083 420.109 75.4304 418.346 78.4045C416.584 81.3787 414.188 83.7471 411.159 85.5095C408.185 87.2169 404.907 88.0706 401.327 88.0706ZM401.327 78.4872C404.026 78.4872 406.312 77.5508 408.185 75.6782C410.112 73.7505 411.076 71.4372 411.076 68.7384V57.9157C411.076 55.2169 410.112 52.9312 408.185 51.0586C406.312 49.1308 404.026 48.167 401.327 48.167C398.629 48.167 396.315 49.1308 394.388 51.0586C392.515 52.9312 391.579 55.2169 391.579 57.9157V68.7384C391.579 71.4372 392.515 73.7505 394.388 75.6782C396.315 77.5508 398.629 78.4872 401.327 78.4872Z" fill="#1C1134"/>
<path d="M445.084 88.0706C441.944 88.0706 439.108 87.3271 436.574 85.84C434.096 84.3529 432.14 82.2875 430.708 79.6438C429.276 77.0001 428.56 74.0259 428.56 70.7212V41.3924C428.56 40.8967 428.726 40.4837 429.056 40.1532C429.387 39.8227 429.8 39.6575 430.295 39.6575H436.739C437.235 39.6575 437.648 39.8227 437.979 40.1532C438.309 40.4837 438.474 40.8967 438.474 41.3924V69.482C438.474 72.4011 439.218 74.6593 440.705 76.2565C442.192 77.7987 444.285 78.5698 446.984 78.5698C450.233 78.5698 452.795 77.5233 454.667 75.4304C456.595 73.2823 457.559 70.3632 457.559 66.673V41.3924C457.559 40.8967 457.724 40.4837 458.054 40.1532C458.385 39.8227 458.798 39.6575 459.294 39.6575H465.738C466.233 39.6575 466.647 39.8227 466.977 40.1532C467.308 40.4837 467.473 40.8967 467.473 41.3924V85.2617C467.473 85.7574 467.308 86.1705 466.977 86.5009C466.647 86.8314 466.233 86.9966 465.738 86.9966H459.294C458.798 86.9966 458.385 86.8314 458.054 86.5009C457.724 86.1705 457.559 85.7574 457.559 85.2617V81.3787C456.017 83.4717 454.171 85.124 452.023 86.3357C449.931 87.4923 447.617 88.0706 445.084 88.0706Z" fill="#1C1134"/>
<path d="M495.658 86.9966C491.362 86.9966 487.865 85.6748 485.166 83.0311C482.522 80.3873 481.201 76.9175 481.201 72.6214V48.9105H475.5C475.004 48.9105 474.591 48.7453 474.261 48.4148C473.93 48.0844 473.765 47.6713 473.765 47.1756V41.3924C473.765 40.8967 473.93 40.4837 474.261 40.1532C474.591 39.8227 475.004 39.6575 475.5 39.6575H481.201V30.7349C481.201 30.2392 481.366 29.8262 481.696 29.4957C482.027 29.1652 482.44 29 482.936 29H489.38C489.875 29 490.288 29.1652 490.619 29.4957C490.949 29.8262 491.115 30.2392 491.115 30.7349V39.6575H505.077C505.572 39.6575 505.985 39.8227 506.316 40.1532C506.646 40.4837 506.812 40.8967 506.812 41.3924V47.2582C506.812 47.7539 506.646 48.167 506.316 48.4974C505.985 48.8279 505.572 48.9931 505.077 48.9931H491.115V72.2083C491.115 73.8606 491.583 75.1825 492.519 76.1739C493.51 77.1653 494.805 77.661 496.402 77.661L505.077 77.7436C505.572 77.7436 505.985 77.9088 506.316 78.2393C506.646 78.5698 506.812 78.9829 506.812 79.4786V85.2617C506.812 85.7574 506.646 86.1705 506.316 86.5009C505.985 86.8314 505.572 86.9966 505.077 86.9966H495.658Z" fill="#1C1134"/>
<path d="M530.828 86.9966C527.248 86.9966 523.944 86.1154 520.914 84.3529C517.94 82.5904 515.572 80.1946 513.809 77.1653C512.047 74.136 511.166 70.8314 511.166 67.2513V58.3288C511.166 54.7487 512.047 51.4441 513.809 48.4148C515.572 45.3856 517.94 42.9897 520.914 41.2272C523.944 39.4647 527.248 38.5835 530.828 38.5835C534.408 38.5835 537.686 39.4647 540.66 41.2272C543.689 42.9897 546.085 45.3856 547.847 48.4148C549.61 51.4441 550.491 54.7487 550.491 58.3288V63.8641C550.491 64.8555 550.133 65.7092 549.417 66.4252C548.756 67.0861 547.93 67.4166 546.939 67.4166H521.08V67.8297C521.08 70.5285 522.016 72.8417 523.889 74.7694C525.816 76.6421 528.13 77.5784 530.828 77.5784H543.964C544.46 77.5784 544.873 77.7436 545.204 78.0741C545.534 78.4045 545.699 78.8176 545.699 79.3133V85.2617C545.699 85.7574 545.534 86.1705 545.204 86.5009C544.873 86.8314 544.46 86.9966 543.964 86.9966H530.828ZM540.577 58.494V57.7505C540.577 55.0517 539.613 52.766 537.686 50.8933C535.813 48.9656 533.527 48.0017 530.828 48.0017C528.13 48.0017 525.816 48.9656 523.889 50.8933C522.016 52.766 521.08 55.0517 521.08 57.7505V58.494H540.577Z" fill="#1C1134"/>
<path d="M557.272 86.9966C556.776 86.9966 556.363 86.8314 556.033 86.5009C555.702 86.1705 555.537 85.7574 555.537 85.2617V79.1481C555.537 78.6524 555.702 78.2393 556.033 77.9088C556.363 77.5784 556.776 77.4131 557.272 77.4131H563.551V48.9931H556.446C555.95 48.9931 555.537 48.8279 555.207 48.4974C554.876 48.167 554.711 47.7539 554.711 47.2582V41.3924C554.711 40.8967 554.876 40.4837 555.207 40.1532C555.537 39.8227 555.95 39.6575 556.446 39.6575H569.251C570.243 39.6575 571.069 40.0155 571.73 40.7315C572.446 41.3924 572.804 42.2186 572.804 43.21V46.1842L577.265 42.6317C578.918 41.3098 580.35 40.401 581.561 39.9053C582.773 39.3546 584.205 39.0792 585.857 39.0792H588.418C588.914 39.0792 589.327 39.2444 589.658 39.5749C589.988 39.9054 590.153 40.3184 590.153 40.8141V47.1756C590.153 47.6713 589.988 48.0844 589.658 48.4148C589.327 48.7453 588.914 48.9105 588.418 48.9105H586.27C584.838 48.9105 583.599 49.1584 582.553 49.6541C581.506 50.1498 579.909 51.2513 577.761 52.9587L573.217 56.5938V77.4131H581.396C581.892 77.4131 582.305 77.5784 582.635 77.9088C582.966 78.2393 583.131 78.6524 583.131 79.1481V85.2617C583.131 85.7574 582.966 86.1705 582.635 86.5009C582.305 86.8314 581.892 86.9966 581.396 86.9966H557.272Z" fill="#1C1134"/>
<defs>
<linearGradient id="paint0_linear_1712_9684" x1="85.9424" y1="118.5" x2="108.442" y2="25.5" gradientUnits="userSpaceOnUse">
<stop stop-color="#292D66"/>
<stop offset="1" stop-color="#6572D8"/>
</linearGradient>
<linearGradient id="paint1_linear_1712_9684" x1="104.217" y1="56.3082" x2="68.0917" y2="2.51252" gradientUnits="userSpaceOnUse">
<stop stop-color="#151833"/>
<stop offset="1" stop-color="#191E46"/>
</linearGradient>
<linearGradient id="paint2_linear_1712_9684" x1="104.217" y1="56.3082" x2="68.0917" y2="2.51252" gradientUnits="userSpaceOnUse">
<stop stop-color="#151833"/>
<stop offset="1" stop-color="#191E46"/>
</linearGradient>
<linearGradient id="paint3_linear_1712_9684" x1="104.217" y1="56.3082" x2="68.0917" y2="2.51252" gradientUnits="userSpaceOnUse">
<stop stop-color="#151833"/>
<stop offset="1" stop-color="#191E46"/>
</linearGradient>
<linearGradient id="paint4_linear_1712_9684" x1="104.217" y1="56.3082" x2="68.0917" y2="2.51252" gradientUnits="userSpaceOnUse">
<stop stop-color="#151833"/>
<stop offset="1" stop-color="#191E46"/>
</linearGradient>
<linearGradient id="paint5_linear_1712_9684" x1="104.217" y1="56.3082" x2="68.0917" y2="2.51252" gradientUnits="userSpaceOnUse">
<stop stop-color="#151833"/>
<stop offset="1" stop-color="#191E46"/>
</linearGradient>
<linearGradient id="paint6_linear_1712_9684" x1="104.217" y1="56.3082" x2="68.0917" y2="2.51252" gradientUnits="userSpaceOnUse">
<stop stop-color="#151833"/>
<stop offset="1" stop-color="#191E46"/>
</linearGradient>
</defs>
</svg>
