<svg width="215" height="436" viewBox="0 0 215 436" fill="none" xmlns="http://www.w3.org/2000/svg">
<rect y="55" width="168" height="166" rx="6.64767" fill="url(#paint0_linear)"/>
<rect opacity="0.3" y="77.7346" width="167.876" height="71.2389" fill="#1C1134"/>
<g opacity="0.3">
<path opacity="0.3" d="M19.354 76.2366V143.378" stroke="#665DC1" stroke-width="0.664767"/>
<path opacity="0.3" d="M46.5347 76.2361V143.378" stroke="#665DC1" stroke-width="0.664767"/>
<path opacity="0.3" d="M75.5269 76.2361V143.378" stroke="#665DC1" stroke-width="0.664767"/>
<path opacity="0.3" d="M102.707 76.2361V143.378" stroke="#665DC1" stroke-width="0.664767"/>
<path opacity="0.3" d="M131.7 76.2361V143.378" stroke="#665DC1" stroke-width="0.664767"/>
</g>
<rect opacity="0.3" x="18.0244" y="62.2759" width="21.2726" height="5.98291" rx="2.99145" fill="#1C1134"/>
<rect opacity="0.2" x="67.2173" y="64.2703" width="14.6249" height="3.32384" rx="1.66192" fill="#1C1134"/>
<path opacity="0.79" fill-rule="evenodd" clip-rule="evenodd" d="M21.0696 88.1428C21.0696 89.1014 20.2924 89.8786 19.3338 89.8786C18.3751 89.8786 17.598 89.1014 17.598 88.1428C17.598 87.1841 18.3751 86.407 19.3338 86.407C20.2924 86.407 21.0696 87.1841 21.0696 88.1428ZM14.6226 88.1435C14.6226 89.1022 13.8455 89.8793 12.8868 89.8793C11.9282 89.8793 11.151 89.1022 11.151 88.1435C11.151 87.1849 11.9282 86.4077 12.8868 86.4077C13.8455 86.4077 14.6226 87.1849 14.6226 88.1435ZM25.7811 89.8786C26.7397 89.8786 27.5169 89.1014 27.5169 88.1428C27.5169 87.1841 26.7397 86.407 25.7811 86.407C24.8224 86.407 24.0453 87.1841 24.0453 88.1428C24.0453 89.1014 24.8224 89.8786 25.7811 89.8786ZM33.964 88.1428C33.964 89.1014 33.1869 89.8786 32.2282 89.8786C31.2695 89.8786 30.4924 89.1014 30.4924 88.1428C30.4924 87.1841 31.2695 86.407 32.2282 86.407C33.1869 86.407 33.964 87.1841 33.964 88.1428ZM38.6755 89.8786C39.6341 89.8786 40.4113 89.1014 40.4113 88.1428C40.4113 87.1841 39.6341 86.407 38.6755 86.407C37.7168 86.407 36.9397 87.1841 36.9397 88.1428C36.9397 89.1014 37.7168 89.8786 38.6755 89.8786ZM14.622 94.5908C14.622 95.5494 13.8448 96.3266 12.8862 96.3266C11.9275 96.3266 11.1504 95.5494 11.1504 94.5908C11.1504 93.6321 11.9275 92.855 12.8862 92.855C13.8448 92.855 14.622 93.6321 14.622 94.5908ZM19.3333 96.3258C20.2919 96.3258 21.0691 95.5487 21.0691 94.59C21.0691 93.6314 20.2919 92.8542 19.3333 92.8542C18.3746 92.8542 17.5975 93.6314 17.5975 94.59C17.5975 95.5487 18.3746 96.3258 19.3333 96.3258ZM27.5164 94.59C27.5164 95.5487 26.7392 96.3258 25.7806 96.3258C24.8219 96.3258 24.0448 95.5487 24.0448 94.59C24.0448 93.6314 24.8219 92.8542 25.7806 92.8542C26.7392 92.8542 27.5164 93.6314 27.5164 94.59ZM32.2277 96.3258C33.1864 96.3258 33.9635 95.5487 33.9635 94.59C33.9635 93.6314 33.1864 92.8542 32.2277 92.8542C31.269 92.8542 30.4919 93.6314 30.4919 94.59C30.4919 95.5487 31.269 96.3258 32.2277 96.3258ZM40.4108 94.59C40.4108 95.5487 39.6337 96.3258 38.675 96.3258C37.7164 96.3258 36.9392 95.5487 36.9392 94.59C36.9392 93.6314 37.7164 92.8542 38.675 92.8542C39.6337 92.8542 40.4108 93.6314 40.4108 94.59ZM12.8862 102.774C13.8448 102.774 14.622 101.997 14.622 101.038C14.622 100.08 13.8448 99.3025 12.8862 99.3025C11.9275 99.3025 11.1504 100.08 11.1504 101.038C11.1504 101.997 11.9275 102.774 12.8862 102.774ZM21.0691 101.037C21.0691 101.996 20.2919 102.773 19.3333 102.773C18.3746 102.773 17.5975 101.996 17.5975 101.037C17.5975 100.079 18.3746 99.3014 19.3333 99.3014C20.2919 99.3014 21.0691 100.079 21.0691 101.037ZM25.7806 102.773C26.7392 102.773 27.5164 101.996 27.5164 101.037C27.5164 100.079 26.7392 99.3014 25.7806 99.3014C24.8219 99.3014 24.0448 100.079 24.0448 101.037C24.0448 101.996 24.8219 102.773 25.7806 102.773ZM33.9635 101.037C33.9635 101.996 33.1864 102.773 32.2277 102.773C31.269 102.773 30.4919 101.996 30.4919 101.037C30.4919 100.079 31.269 99.3014 32.2277 99.3014C33.1864 99.3014 33.9635 100.079 33.9635 101.037ZM38.675 102.773C39.6337 102.773 40.4108 101.996 40.4108 101.037C40.4108 100.079 39.6337 99.3014 38.675 99.3014C37.7164 99.3014 36.9392 100.079 36.9392 101.037C36.9392 101.996 37.7164 102.773 38.675 102.773Z" fill="url(#paint1_linear)"/>
<mask id="mask0" mask-type="alpha" maskUnits="userSpaceOnUse" x="0" y="54" width="168" height="167">
<rect y="54.8142" width="167.876" height="166.186" rx="6.81416" fill="url(#paint2_linear)"/>
</mask>
<g mask="url(#mask0)">
<g opacity="0.1" filter="url(#filter0_f)">
<rect x="93.1543" y="39.1853" width="55.6654" height="98.1692" rx="5.68015" fill="url(#paint3_linear)"/>
</g>
<g opacity="0.8" filter="url(#filter1_f)">
<ellipse cx="125.133" cy="213.01" rx="99.7345" ry="85.7561" fill="#22CAD9"/>
</g>
</g>
<rect x="76" width="138.761" height="133.805" rx="6.64767" fill="url(#paint4_linear)"/>
<path d="M141.569 103.875C142.988 104.992 145.082 104.7 146.246 103.221C147.411 101.743 147.204 99.6386 145.785 98.5211C144.366 97.4035 112.969 75.3898 112.179 76.3935C111.388 77.3973 140.15 102.757 141.569 103.875Z" fill="#172A79"/>
<path d="M118.661 17.7698V13.4459H120.278C120.691 13.4459 121.005 13.5615 121.22 13.7928C121.439 14.0241 121.548 14.342 121.548 14.7468C121.548 15.1515 121.439 15.4695 121.22 15.7007C121.005 15.932 120.691 16.0477 120.278 16.0477H119.355V17.7698H118.661ZM119.355 15.4715H120.173C120.602 15.4715 120.817 15.2733 120.817 14.8769V14.6105C120.817 14.2182 120.602 14.022 120.173 14.022H119.355V15.4715ZM124.717 17.7698L124.389 16.6176H123.014L122.685 17.7698H121.979L123.243 13.4459H124.191L125.454 17.7698H124.717ZM123.726 14.1459H123.677L123.144 16.0415H124.259L123.726 14.1459ZM128.233 17.1751H128.19C128.153 17.2618 128.108 17.3465 128.054 17.4291C128.004 17.5075 127.94 17.5777 127.862 17.6397C127.787 17.7016 127.697 17.7512 127.589 17.7884C127.482 17.8255 127.358 17.8441 127.218 17.8441C126.767 17.8441 126.429 17.6521 126.202 17.268C125.974 16.8839 125.861 16.3409 125.861 15.6388C125.861 14.9037 125.991 14.342 126.251 13.9538C126.511 13.5656 126.91 13.3715 127.447 13.3715C127.657 13.3715 127.841 13.4005 127.998 13.4583C128.159 13.5161 128.295 13.5946 128.407 13.6937C128.518 13.7887 128.611 13.9022 128.686 14.0344C128.76 14.1624 128.82 14.2987 128.865 14.4432L128.24 14.6538C128.207 14.5589 128.169 14.4701 128.128 14.3875C128.087 14.3007 128.035 14.2243 127.973 14.1583C127.915 14.0922 127.843 14.0406 127.756 14.0034C127.674 13.9662 127.573 13.9477 127.453 13.9477C127.151 13.9477 126.933 14.0654 126.796 14.3007C126.664 14.532 126.598 14.8459 126.598 15.2423V15.93C126.598 16.1282 126.613 16.3099 126.641 16.4751C126.67 16.6403 126.718 16.7828 126.784 16.9025C126.854 17.0182 126.943 17.109 127.05 17.1751C127.162 17.2412 127.296 17.2742 127.453 17.2742C127.705 17.2742 127.897 17.1999 128.029 17.0512C128.165 16.8984 128.233 16.7043 128.233 16.4689V16.0786H127.397V15.5583H128.865V17.7698H128.233V17.1751ZM129.817 17.7698V13.4459H132.524V14.0282H130.511V15.2857H132.45V15.868H130.511V17.1875H132.524V17.7698H129.817ZM137.382 17.7698V13.4459H138.076V17.1875H140.046V17.7698H137.382ZM142.286 17.8441C142.013 17.8441 141.776 17.7946 141.573 17.6954C141.375 17.5922 141.21 17.4456 141.078 17.2556C140.95 17.0656 140.855 16.8323 140.793 16.5556C140.731 16.2789 140.7 15.963 140.7 15.6078C140.7 15.2568 140.731 14.9429 140.793 14.6662C140.855 14.3854 140.95 14.15 141.078 13.96C141.21 13.7701 141.375 13.6255 141.573 13.5264C141.776 13.4232 142.013 13.3715 142.286 13.3715C142.558 13.3715 142.794 13.4232 142.992 13.5264C143.194 13.6255 143.359 13.7701 143.488 13.96C143.62 14.15 143.717 14.3854 143.779 14.6662C143.841 14.9429 143.872 15.2568 143.872 15.6078C143.872 15.963 143.841 16.2789 143.779 16.5556C143.717 16.8323 143.62 17.0656 143.488 17.2556C143.359 17.4456 143.194 17.5922 142.992 17.6954C142.794 17.7946 142.558 17.8441 142.286 17.8441ZM142.286 17.268C142.595 17.268 142.814 17.1524 142.942 16.9211C143.07 16.6857 143.134 16.3677 143.134 15.9671V15.2423C143.134 14.8459 143.07 14.532 142.942 14.3007C142.814 14.0654 142.595 13.9477 142.286 13.9477C141.976 13.9477 141.757 14.0654 141.629 14.3007C141.501 14.532 141.437 14.8459 141.437 15.2423V15.9733C141.437 16.3698 141.501 16.6857 141.629 16.9211C141.757 17.1524 141.976 17.268 142.286 17.268ZM147.004 17.7698L146.675 16.6176H145.3L144.972 17.7698H144.266L145.529 13.4459H146.477L147.741 17.7698H147.004ZM146.013 14.1459H145.963L145.43 16.0415H146.545L146.013 14.1459ZM148.364 13.4459H149.653C150.206 13.4459 150.615 13.6297 150.879 13.9972C151.148 14.3648 151.282 14.9016 151.282 15.6078C151.282 16.314 151.148 16.8509 150.879 17.2184C150.615 17.586 150.206 17.7698 149.653 17.7698H148.364V13.4459ZM149.609 17.1999C149.927 17.1999 150.163 17.0946 150.315 16.8839C150.472 16.6692 150.551 16.3636 150.551 15.9671V15.2485C150.551 14.8521 150.472 14.5485 150.315 14.3379C150.163 14.1232 149.927 14.0158 149.609 14.0158H149.052V17.1999H149.609ZM157.49 14.0282V17.7698H156.796V14.0282H155.44V13.4459H158.847V14.0282H157.49ZM159.495 17.7698V17.2432H160.511V13.9724H159.495V13.4459H162.221V13.9724H161.205V17.2432H162.221V17.7698H159.495ZM165.47 15.7007L165.489 14.3999H165.439L164.572 16.6238L163.705 14.3999H163.655L163.674 15.7007V17.7698H163.061V13.4459H163.909L164.572 15.1618H164.615L165.284 13.4459H166.084V17.7698H165.47V15.7007ZM166.961 17.7698V13.4459H169.668V14.0282H167.655V15.2857H169.594V15.868H167.655V17.1875H169.668V17.7698H166.961Z" fill="#ACA8D0"/>
<path opacity="0.8" d="M124.989 72.1768V71.4499H129.725V57.3976H129.637L125.099 61.2961L124.615 60.7455L129.218 56.8029H130.518V71.4499H135.033V72.1768H124.989ZM138.196 72.1768V71.4499H142.931V57.3976H142.843L138.306 61.2961L137.821 60.7455L142.425 56.8029H143.724V71.4499H148.24V72.1768H138.196ZM158.208 72.1768V68.7628H150.279V68.036L157.9 56.8029H158.979V68.102H161.49V68.7628H158.979V72.1768H158.208ZM151.028 68.102H158.208V57.6179H158.142L151.028 68.102Z" fill="#172A79"/>
<path d="M164.406 60.1843V55.8684H165.184V56.4288H165.226C165.293 56.2448 165.388 56.0887 165.511 55.9604C165.639 55.8322 165.82 55.7681 166.054 55.7681C166.283 55.7681 166.458 55.8322 166.581 55.9604C166.709 56.0831 166.79 56.2532 166.824 56.4706H166.857C166.935 56.2755 167.044 56.111 167.183 55.9772C167.323 55.8378 167.523 55.7681 167.786 55.7681C168.12 55.7681 168.352 55.8852 168.48 56.1194C168.614 56.3536 168.681 56.6965 168.681 57.1481V60.1843H167.903V57.2652C167.903 56.9641 167.866 56.7578 167.794 56.6463C167.721 56.5292 167.604 56.4706 167.443 56.4706C167.298 56.4706 167.175 56.5208 167.075 56.6212C166.98 56.716 166.932 56.861 166.932 57.0561V60.1843H166.155V57.2652C166.155 56.9641 166.118 56.7578 166.046 56.6463C165.979 56.5292 165.865 56.4706 165.703 56.4706C165.552 56.4706 165.427 56.5208 165.327 56.6212C165.232 56.716 165.184 56.861 165.184 57.0561V60.1843H164.406ZM171.571 60.2847C171.103 60.2847 170.699 60.2094 170.358 60.0589C170.024 59.9083 169.753 59.7076 169.547 59.4566L170.108 58.9548C170.297 59.1611 170.509 59.32 170.743 59.4316C170.983 59.5375 171.265 59.5905 171.588 59.5905C171.884 59.5905 172.12 59.5403 172.299 59.4399C172.483 59.3395 172.575 59.1834 172.575 58.9715C172.575 58.8823 172.558 58.807 172.525 58.7457C172.491 58.6844 172.444 58.6342 172.383 58.5951C172.321 58.5561 172.249 58.5254 172.165 58.5031C172.087 58.4808 172.003 58.4641 171.914 58.4529L171.228 58.3442C171.061 58.3219 170.891 58.2857 170.718 58.2355C170.545 58.1853 170.389 58.1156 170.25 58.0264C170.116 57.9316 170.004 57.8117 169.915 57.6667C169.832 57.5217 169.79 57.3377 169.79 57.1147C169.79 56.6742 169.957 56.3396 170.292 56.111C170.632 55.8824 171.078 55.7681 171.63 55.7681C172.031 55.7681 172.377 55.8294 172.667 55.9521C172.962 56.0692 173.208 56.2337 173.403 56.4456L172.893 56.9809C172.781 56.8526 172.622 56.7355 172.416 56.6296C172.21 56.518 171.936 56.4623 171.596 56.4623C170.989 56.4623 170.685 56.6547 170.685 57.0394C170.685 57.2234 170.749 57.3517 170.877 57.4242C171.011 57.4911 171.167 57.5357 171.345 57.558L172.031 57.6667C172.204 57.6946 172.374 57.7308 172.541 57.7755C172.714 57.8201 172.868 57.8898 173.002 57.9846C173.141 58.0738 173.252 58.1909 173.336 58.3359C173.425 58.4808 173.47 58.6648 173.47 58.8879C173.47 59.3228 173.3 59.6657 172.96 59.9167C172.625 60.162 172.162 60.2847 171.571 60.2847Z" fill="#ACA8D0"/>
<path d="M186.167 110.265C191.698 102.234 194.938 92.4896 194.938 81.9852C194.938 54.4963 172.751 32.2122 145.381 32.2122C118.011 32.2122 95.8232 54.4963 95.8232 81.9852C95.8232 92.4896 99.0632 102.234 104.594 110.265" stroke="white" stroke-width="4.95575" stroke-linecap="round"/>
<path d="M104.594 110.265C99.0632 102.234 95.8232 92.4896 95.8232 81.9851C95.8232 54.4963 118.011 32.2122 145.381 32.2122C168.08 32.2122 187.214 47.5393 193.084 68.4511" stroke="url(#paint5_linear)" stroke-width="4.95575" stroke-linecap="round"/>
<path d="M195 399C195 365.261 129 354.478 129 323" stroke="#E1E1FF" stroke-width="3.71681"/>
<path d="M143.433 416C152.12 380.079 107.462 355.119 115.567 321.606" stroke="#E1E1FF" stroke-width="3.71681"/>
<path d="M90.1776 395C104.812 363.741 89.1759 350.77 102.83 321.606" stroke="#E1E1FF" stroke-width="3.71681"/>
<path d="M36.9573 399.38C46.1177 363.696 76.4537 359.63 85.0003 326.338" stroke="#E1E1FF" stroke-width="3.71681"/>
<path opacity="0.6" d="M195 399C195 365.261 129 354.478 129 323" stroke="white" stroke-width="1.85841" stroke-linecap="round" stroke-dasharray="0.62 7.43"/>
<path opacity="0.6" d="M143.433 416C152.12 380.079 107.462 355.119 115.567 321.606" stroke="white" stroke-width="1.85841" stroke-linecap="round" stroke-dasharray="0.62 7.43"/>
<path opacity="0.6" d="M90.1776 395C104.812 363.741 89.1759 350.77 102.83 321.606" stroke="white" stroke-width="1.85841" stroke-linecap="round" stroke-dasharray="0.62 7.43"/>
<path opacity="0.6" d="M36.9573 399.38C46.1177 363.696 76.4537 359.63 85.0003 326.338" stroke="white" stroke-width="1.85841" stroke-linecap="round" stroke-dasharray="0.62 7.43"/>
<path d="M111 196L111 298.5" stroke="#E1E1FF" stroke-width="3.71681"/>
<path opacity="0.6" d="M111 196L111 298.5" stroke="white" stroke-width="1.85841" stroke-linecap="round" stroke-dasharray="0.62 7.43"/>
<rect x="66" y="244" width="88.4095" height="88.4095" rx="8.84348" fill="url(#paint6_linear)"/>
<path fill-rule="evenodd" clip-rule="evenodd" d="M133.676 274.401L109.848 310.714C108.219 313.197 104.861 313.905 102.348 312.296C101.267 311.604 100.471 310.556 100.102 309.337C97.969 302.3 96.2579 297.957 94.9683 296.308C93.6988 294.684 89.9398 291.966 83.6914 288.152C81.1435 286.597 80.3545 283.296 81.9291 280.78C82.6375 279.648 83.7472 278.817 85.0421 278.448L127.625 266.341C130.503 265.522 133.508 267.163 134.337 270.006C134.771 271.496 134.53 273.099 133.676 274.401Z" fill="url(#paint7_linear)"/>
<mask id="mask1" mask-type="alpha" maskUnits="userSpaceOnUse" x="81" y="266" width="54" height="48">
<path fill-rule="evenodd" clip-rule="evenodd" d="M133.676 274.401L109.848 310.714C108.219 313.197 104.861 313.905 102.348 312.296C101.267 311.604 100.471 310.556 100.102 309.337C97.969 302.3 96.2579 297.957 94.9683 296.308C93.6988 294.684 89.9398 291.966 83.6914 288.152C81.1435 286.597 80.3545 283.296 81.9291 280.78C82.6375 279.648 83.7472 278.817 85.0421 278.448L127.625 266.341C130.503 265.522 133.508 267.163 134.337 270.006C134.771 271.496 134.53 273.099 133.676 274.401Z" fill="white"/>
</mask>
<g mask="url(#mask1)">
<path opacity="0.347767" fill-rule="evenodd" clip-rule="evenodd" d="M97.0581 260.617C85.0859 267.443 80.9609 282.603 87.8631 294.41L89.789 297.705C91.6308 296.655 92.2655 294.322 91.2036 292.506C85.3633 282.515 88.8535 269.687 98.9839 263.911C109.114 258.134 122.108 261.563 127.948 271.554L135.651 284.731C136.667 286.468 138.871 287.113 140.673 286.248C140.224 285.122 139.686 284.015 139.056 282.936L131.288 269.649C124.386 257.842 109.03 253.79 97.0581 260.617ZM132.363 286.823L124.668 273.659C119.894 265.493 109.275 262.69 100.996 267.411C92.7172 272.132 89.8653 282.616 94.6389 290.782C96.7605 294.411 95.4929 299.071 91.8135 301.169L93.7373 304.46C99.2566 301.313 101.158 294.323 97.9754 288.879C94.2626 282.528 96.4807 274.374 102.92 270.702C109.359 267.03 117.619 269.21 121.331 275.561L129.027 288.725C131.76 293.401 137.369 295.439 142.395 293.927C142.316 292.645 142.136 291.363 141.85 290.092C138.362 291.449 134.29 290.12 132.363 286.823ZM126.267 291.859C126.41 293.736 126.411 295.627 126.268 297.517C128.448 299.397 131.048 300.776 133.92 301.54C136.416 302.204 138.967 302.364 141.454 302.036C141.807 300.727 142.051 299.39 142.185 298.038C136.228 299.315 129.875 296.977 126.267 291.859ZM127.956 303.429C129.538 304.268 131.23 304.924 132.984 305.38C135.321 305.988 137.701 306.226 140.054 306.108C139.435 307.425 138.696 308.693 137.844 309.895C135.883 309.821 133.917 309.534 131.977 309.029C130.695 308.696 129.441 308.27 128.229 307.758C126.743 312.246 124.525 316.396 121.681 320.079C119.923 320.388 118.152 320.507 116.395 320.444C120.501 316.026 123.507 310.687 125.143 304.76L125.814 302.293L127.956 303.429ZM101.339 286.988C98.6762 282.432 100.256 276.589 104.86 273.964C109.465 271.338 115.378 272.908 118.041 277.464C122.69 285.416 123.932 294.669 121.539 303.52C119.842 309.799 116.456 315.346 111.763 319.676C110.305 319.335 108.878 318.868 107.501 318.277C119.032 309 122.384 292.512 114.701 279.369C113.103 276.636 109.555 275.693 106.792 277.269C104.03 278.844 103.082 282.35 104.68 285.083C107.262 289.501 107.952 294.641 106.623 299.559C105.317 304.388 102.216 308.437 97.8763 310.992C97.1097 310.04 96.4043 309.022 95.7704 307.937L95.706 307.827C103.074 303.626 105.601 294.277 101.339 286.988ZM131.154 312.466C130.994 312.428 130.834 312.388 130.675 312.348C129.777 314.329 128.738 316.246 127.566 318.089C128.363 317.732 129.151 317.334 129.926 316.892C131.811 315.817 133.511 314.55 135.014 313.134C133.714 312.989 132.423 312.768 131.154 312.466ZM108.053 282.953C107.521 282.044 107.834 280.882 108.752 280.358C109.671 279.835 110.846 280.148 111.378 281.058C114.982 287.223 115.949 294.396 114.101 301.256C112.486 307.252 108.886 312.386 103.85 315.953C102.726 315.228 101.655 314.409 100.651 313.501C110.882 306.974 114.231 293.521 108.053 282.953Z" fill="url(#paint8_linear)"/>
</g>
<g filter="url(#filter2_b)">
<path d="M27 162.478C27 161.109 28.1094 160 29.4779 160H191.159C192.528 160 193.637 161.109 193.637 162.478V194.071C193.637 195.439 192.528 196.549 191.159 196.549H29.4779C28.1094 196.549 27 195.439 27 194.071V162.478Z" fill="#E9EBF9" fill-opacity="0.8"/>
</g>
<path d="M37.168 166.101H53.6907" stroke="white" stroke-width="1.85841" stroke-linecap="round"/>
<path d="M44.2852 170.168H52.9278" stroke="white" stroke-width="1.85841" stroke-linecap="round"/>
<path d="M85.4648 170.168H112.918" stroke="white" stroke-width="1.85841" stroke-linecap="round"/>
<path d="M48.3525 178.302H69.1966" stroke="white" stroke-width="1.85841" stroke-linecap="round"/>
<path opacity="0.4" d="M93.0908 174.235H98.1747" stroke="white" stroke-width="1.85841" stroke-linecap="round"/>
<path d="M44.2852 182.369H66.146" stroke="white" stroke-width="1.85841" stroke-linecap="round"/>
<path opacity="0.4" d="M55.4697 170.168H82.9229" stroke="white" stroke-width="1.85841" stroke-linecap="round"/>
<path d="M74.2803 186.436H84.9565" stroke="white" stroke-width="1.85841" stroke-linecap="round"/>
<path opacity="0.4" d="M48.3525 174.235H61.5707" stroke="white" stroke-width="1.85841" stroke-linecap="round"/>
<path d="M64.1128 174.235H90.5492" stroke="white" stroke-width="1.85841" stroke-linecap="round"/>
<path opacity="0.4" d="M71.7383 178.302H81.9061" stroke="white" stroke-width="1.85841" stroke-linecap="round"/>
<path opacity="0.4" d="M49.8774 186.436H71.7383" stroke="white" stroke-width="1.85841" stroke-linecap="round"/>
<path d="M44.2852 190.504H55.4698" stroke="white" stroke-width="1.85841" stroke-linecap="round"/>
<path d="M100.717 174.235H133.254" stroke="white" stroke-width="1.85841" stroke-linecap="round"/>
<g filter="url(#filter3_b)">
<circle cx="111.053" cy="196.779" r="8.0531" fill="#8D70D5" fill-opacity="0.4"/>
</g>
<circle cx="111.053" cy="196.779" r="1.85841" fill="white"/>
<rect x="129" y="407" width="28.4956" height="28.4956" rx="4.95575" fill="url(#paint9_linear)"/>
<g opacity="0.4">
<path fill-rule="evenodd" clip-rule="evenodd" d="M148.888 419.126C148.894 419.034 148.897 418.941 148.897 418.847C148.897 416.529 147.018 414.65 144.7 414.65C142.653 414.65 140.948 416.116 140.578 418.056C140.255 417.954 139.912 417.899 139.556 417.899C137.687 417.899 136.171 419.414 136.171 421.283C136.171 423.114 137.625 424.605 139.441 424.666C139.643 426.644 141.315 428.188 143.347 428.188C145.471 428.188 147.201 426.501 147.27 424.394C147.316 424.396 147.362 424.397 147.408 424.397C148.978 424.397 150.251 423.124 150.251 421.554C150.251 420.526 149.705 419.626 148.888 419.126ZM139.898 423.096C139.896 423.094 139.893 423.091 139.89 423.089C139.874 423.076 139.848 423.054 139.876 422.992L140.091 422.479C140.125 422.391 140.203 422.421 140.234 422.437C140.258 422.45 140.279 422.462 140.301 422.474C140.334 422.492 140.368 422.511 140.413 422.534C141.047 422.879 141.633 422.881 141.817 422.881C142.29 422.881 142.584 422.666 142.584 422.376V422.36C142.584 422.043 142.132 421.923 141.608 421.785L141.492 421.754C140.773 421.578 140.005 421.323 140.005 420.542V420.526C140.005 419.784 140.701 419.265 141.698 419.265L141.807 419.265C142.392 419.265 142.958 419.411 143.368 419.625C143.405 419.645 143.441 419.682 143.421 419.731C143.401 419.776 143.22 420.196 143.199 420.244C143.161 420.331 143.055 420.273 143.055 420.273C142.696 420.102 142.14 419.968 141.671 419.968C141.249 419.968 140.976 420.161 140.976 420.423V420.438C140.976 420.744 141.442 420.874 141.982 421.025L142.076 421.051C142.792 421.246 143.556 421.515 143.556 422.257V422.272C143.556 423.074 142.879 423.572 141.79 423.572C141.255 423.572 140.743 423.5 140.201 423.254C140.179 423.242 140.156 423.232 140.134 423.221C140.055 423.182 139.976 423.144 139.898 423.096ZM146.933 417.142C147.021 417.159 147.109 417.182 147.194 417.211C147.213 417.219 147.264 417.247 147.243 417.313L147.041 417.927C147.024 417.973 147.012 418.002 146.926 417.972C146.905 417.965 146.873 417.955 146.791 417.936C146.732 417.922 146.653 417.912 146.574 417.912C146.478 417.91 146.382 417.926 146.29 417.957C146.206 417.987 146.13 418.04 146.069 418.109C146.003 418.183 145.925 418.289 145.883 418.422C145.799 418.691 145.759 418.975 145.747 419.058C145.745 419.071 145.744 419.079 145.744 419.082H146.589C146.66 419.081 146.682 419.118 146.675 419.176L146.577 419.784C146.561 419.872 146.488 419.869 146.488 419.869H145.617L145.022 423.6C144.959 423.985 144.881 424.316 144.789 424.583C144.697 424.852 144.6 425.049 144.446 425.237C144.303 425.412 144.142 425.541 143.957 425.615C143.774 425.688 143.552 425.726 143.308 425.726C143.192 425.726 143.068 425.724 142.921 425.685C142.815 425.658 142.757 425.638 142.68 425.607C142.647 425.594 142.62 425.549 142.639 425.491C142.657 425.432 142.813 424.958 142.835 424.896C142.862 424.82 142.931 424.849 142.931 424.849L142.934 424.85C142.979 424.871 143.012 424.887 143.073 424.9C143.136 424.914 143.221 424.926 143.285 424.926C143.4 424.926 143.505 424.91 143.596 424.876C143.707 424.835 143.771 424.765 143.838 424.669C143.908 424.571 143.965 424.435 144.023 424.253C144.081 424.069 144.134 423.827 144.181 423.532L144.774 419.869H144.189C144.119 419.87 144.096 419.833 144.103 419.775L144.202 419.167C144.217 419.078 144.29 419.082 144.29 419.082H144.891L144.923 418.883C145.013 418.296 145.191 417.849 145.454 417.556C145.719 417.261 146.096 417.111 146.574 417.111C146.694 417.11 146.814 417.12 146.933 417.142Z" fill="white"/>
</g>
<rect x="75" y="395" width="28.4956" height="28.4956" rx="4.95575" fill="url(#paint10_linear)"/>
<g opacity="0.4">
<path d="M94.8136 413.756C94.8136 414.657 94.0504 415.417 93.1111 415.417H92.9057C92.0251 415.304 91.3793 414.544 91.4087 413.699V403.902C91.3793 403.057 92.0251 402.325 92.9057 402.184C93.845 402.072 94.6962 402.719 94.8136 403.62V413.756Z" fill="white"/>
<path d="M84.3301 412.12C85.227 412.12 85.9558 412.858 85.9558 413.767C85.9558 414.676 85.227 415.415 84.3301 415.415C83.4331 415.415 82.7044 414.676 82.7044 413.767C82.6763 412.858 83.4331 412.12 84.3301 412.12ZM88.6185 407.091C87.7216 407.148 87.0209 407.915 87.0209 408.824V413.284C87.0209 414.478 87.5534 415.216 88.3102 415.387C89.2072 415.557 90.048 414.989 90.2442 414.08C90.2723 413.966 90.2723 413.853 90.2723 413.739V408.767C90.2723 407.858 89.5435 407.091 88.6466 407.091H88.6185Z" fill="white"/>
</g>
<rect x="180" y="388" width="28.4956" height="28.4956" rx="4.95575" fill="url(#paint11_linear)"/>
<path opacity="0.4" fill-rule="evenodd" clip-rule="evenodd" d="M197.698 402.603L198.069 400.212H195.745V398.661C195.745 398.007 196.069 397.369 197.111 397.369H198.168V395.333C198.168 395.333 197.209 395.172 196.292 395.172C194.377 395.172 193.125 396.316 193.125 398.39V400.212H190.997V402.603H193.125V409.037C194.016 409.037 194.96 409.037 195.745 409.037V402.603L197.698 402.603Z" fill="white"/>
<rect x="20" y="388" width="28.4956" height="28.4956" rx="4.95575" fill="url(#paint12_linear)"/>
<g opacity="0.4">
<path d="M31.1958 405.69L30.784 404.079H28.9964L28.594 405.69H27.1714L28.9403 398.997H30.9244L32.6933 405.69H31.1958ZM29.9323 400.387H29.8575L29.221 402.919H30.5688L29.9323 400.387Z" fill="white"/>
<path d="M33.3863 405.69V398.997H35.9133C36.2315 398.997 36.5154 399.048 36.765 399.15C37.0146 399.246 37.2236 399.387 37.392 399.572C37.5667 399.757 37.6978 399.981 37.7851 400.243C37.8725 400.505 37.9162 400.799 37.9162 401.125C37.9162 401.451 37.8725 401.746 37.7851 402.008C37.6978 402.27 37.5667 402.494 37.392 402.679C37.2236 402.864 37.0146 403.008 36.765 403.11C36.5154 403.206 36.2315 403.254 35.9133 403.254H34.7996V405.69H33.3863ZM34.7996 402.094H35.5576C35.8883 402.094 36.1161 402.03 36.2409 401.902C36.3719 401.774 36.4374 401.563 36.4374 401.269V400.982C36.4374 400.688 36.3719 400.477 36.2409 400.349C36.1161 400.221 35.8883 400.157 35.5576 400.157H34.7996V402.094Z" fill="white"/>
<path d="M38.2592 405.69V404.626H39.663V400.061H38.2592V398.997H42.4708V400.061H41.0669V404.626H42.4708V405.69H38.2592Z" fill="white"/>
</g>
<defs>
<filter id="filter0_f" x="84.0661" y="30.0971" width="73.8419" height="116.346" filterUnits="userSpaceOnUse" color-interpolation-filters="sRGB">
<feFlood flood-opacity="0" result="BackgroundImageFix"/>
<feBlend mode="normal" in="SourceGraphic" in2="BackgroundImageFix" result="shape"/>
<feGaussianBlur stdDeviation="4.54412" result="effect1_foregroundBlur"/>
</filter>
<filter id="filter1_f" x="-73.7166" y="28.1391" width="397.699" height="369.742" filterUnits="userSpaceOnUse" color-interpolation-filters="sRGB">
<feFlood flood-opacity="0" result="BackgroundImageFix"/>
<feBlend mode="normal" in="SourceGraphic" in2="BackgroundImageFix" result="shape"/>
<feGaussianBlur stdDeviation="49.5575" result="effect1_foregroundBlur"/>
</filter>
<filter id="filter2_b" x="12.1327" y="145.133" width="196.372" height="66.2832" filterUnits="userSpaceOnUse" color-interpolation-filters="sRGB">
<feFlood flood-opacity="0" result="BackgroundImageFix"/>
<feGaussianBlur in="BackgroundImage" stdDeviation="7.43363"/>
<feComposite in2="SourceAlpha" operator="in" result="effect1_backgroundBlur"/>
<feBlend mode="normal" in="SourceGraphic" in2="effect1_backgroundBlur" result="shape"/>
</filter>
<filter id="filter3_b" x="99.2832" y="185.009" width="23.5398" height="23.5398" filterUnits="userSpaceOnUse" color-interpolation-filters="sRGB">
<feFlood flood-opacity="0" result="BackgroundImageFix"/>
<feGaussianBlur in="BackgroundImage" stdDeviation="1.85841"/>
<feComposite in2="SourceAlpha" operator="in" result="effect1_backgroundBlur"/>
<feBlend mode="normal" in="SourceGraphic" in2="effect1_backgroundBlur" result="shape"/>
</filter>
<linearGradient id="paint0_linear" x1="209.014" y1="228.876" x2="143.201" y2="0.418792" gradientUnits="userSpaceOnUse">
<stop stop-color="#9474D9"/>
<stop offset="1" stop-color="#032B8D"/>
</linearGradient>
<linearGradient id="paint1_linear" x1="11.1504" y1="85.167" x2="38.6763" y2="102.773" gradientUnits="userSpaceOnUse">
<stop stop-color="#7C68CC"/>
<stop offset="1" stop-color="#253C9E"/>
</linearGradient>
<linearGradient id="paint2_linear" x1="212.407" y1="238.892" x2="146.465" y2="3.47735" gradientUnits="userSpaceOnUse">
<stop stop-color="#9474D9"/>
<stop offset="1" stop-color="#032B8D"/>
</linearGradient>
<linearGradient id="paint3_linear" x1="140.868" y1="125.389" x2="161.283" y2="63.595" gradientUnits="userSpaceOnUse">
<stop stop-color="#9474D9"/>
<stop offset="1" stop-color="#032B8D"/>
</linearGradient>
<linearGradient id="paint4_linear" x1="598.478" y1="50.9259" x2="541.863" y2="-156.373" gradientUnits="userSpaceOnUse">
<stop stop-color="#E7E1F4"/>
<stop offset="1" stop-color="#FBFCFF"/>
</linearGradient>
<linearGradient id="paint5_linear" x1="197.743" y1="70.7447" x2="95.8232" y2="70.7447" gradientUnits="userSpaceOnUse">
<stop stop-color="#9474D9"/>
<stop offset="0.510417" stop-color="#4049AD"/>
<stop offset="1" stop-color="#338CF1"/>
</linearGradient>
<linearGradient id="paint6_linear" x1="398.889" y1="277.648" x2="360.298" y2="141.393" gradientUnits="userSpaceOnUse">
<stop stop-color="#E7E1F4"/>
<stop offset="1" stop-color="#FBFCFF"/>
</linearGradient>
<linearGradient id="paint7_linear" x1="126.797" y1="318.511" x2="132.865" y2="269.109" gradientUnits="userSpaceOnUse">
<stop stop-color="#292D66"/>
<stop offset="1" stop-color="#6572D8"/>
</linearGradient>
<linearGradient id="paint8_linear" x1="130.219" y1="276.162" x2="90.1927" y2="265.063" gradientUnits="userSpaceOnUse">
<stop stop-color="#151833"/>
<stop offset="1" stop-color="#191E46"/>
</linearGradient>
<linearGradient id="paint9_linear" x1="165.054" y1="438.564" x2="153.649" y2="398.257" gradientUnits="userSpaceOnUse">
<stop stop-color="#9474D9"/>
<stop offset="1" stop-color="#032B8D"/>
</linearGradient>
<linearGradient id="paint10_linear" x1="111.054" y1="426.564" x2="99.6493" y2="386.257" gradientUnits="userSpaceOnUse">
<stop stop-color="#9474D9"/>
<stop offset="1" stop-color="#032B8D"/>
</linearGradient>
<linearGradient id="paint11_linear" x1="216.054" y1="419.564" x2="204.649" y2="379.257" gradientUnits="userSpaceOnUse">
<stop stop-color="#9474D9"/>
<stop offset="1" stop-color="#032B8D"/>
</linearGradient>
<linearGradient id="paint12_linear" x1="56.0543" y1="419.564" x2="44.6493" y2="379.257" gradientUnits="userSpaceOnUse">
<stop stop-color="#9474D9"/>
<stop offset="1" stop-color="#032B8D"/>
</linearGradient>
</defs>
</svg>
