<svg width="49" height="48" viewBox="0 0 49 48" fill="none" xmlns="http://www.w3.org/2000/svg">
<path d="M9.85961 35.2494L8.60162 43.8021C8.35826 45.4566 10.1321 46.6613 11.5803 45.8252L20.8742 40.4594C22.3224 39.6233 22.1659 37.4847 20.6115 36.8682L12.5756 33.6813C11.3764 33.2058 10.0473 33.9731 9.85961 35.2494Z" fill="url(#paint0_linear)"/>
<path d="M47.9985 22.9274L32.2356 10.5423C30.9234 9.51123 29 10.4461 29 12.1149L29 36.8851C29 38.5539 30.9234 39.4888 32.2356 38.4577L47.9985 26.0726C49.0176 25.2719 49.0176 23.7281 47.9985 22.9274Z" fill="url(#paint1_linear)"/>
<path d="M24 24L35 24" stroke="#1C1134" stroke-linecap="round"/>
<rect x="15.5564" y="18.7782" width="11" height="11" rx="2" transform="rotate(135 15.5564 18.7782)" fill="url(#paint2_linear)"/>
<circle cx="16.5" cy="27.5" r="5.5" fill="url(#paint3_linear)"/>
<circle cx="15.5" cy="9.5" r="5.5" fill="url(#paint4_linear)"/>
<rect x="1" y="31" width="7" height="17" rx="2" fill="url(#paint5_linear)"/>
<path d="M17 1H20C22.2091 1 24 2.79086 24 5V43C24 45.2091 22.2091 47 20 47H17" stroke="#1C1134" stroke-linecap="round"/>
<defs>
<linearGradient id="paint0_linear" x1="8" y1="47.8923" x2="8.02288" y2="28.7808" gradientUnits="userSpaceOnUse">
<stop stop-color="#5587F3"/>
<stop offset="1" stop-color="#13C2D8"/>
</linearGradient>
<linearGradient id="paint1_linear" x1="22.5385" y1="35.225" x2="29.0731" y2="-6.33259" gradientUnits="userSpaceOnUse">
<stop stop-color="#2FD6B8"/>
<stop offset="1" stop-color="#2FD6B8" stop-opacity="0"/>
</linearGradient>
<linearGradient id="paint2_linear" x1="15.5564" y1="22.5594" x2="25.1814" y2="28.7469" gradientUnits="userSpaceOnUse">
<stop stop-color="#5587F3"/>
<stop offset="1" stop-color="#7681F1" stop-opacity="0.2"/>
</linearGradient>
<linearGradient id="paint3_linear" x1="20.075" y1="36.3846" x2="6.02068" y2="34.9783" gradientUnits="userSpaceOnUse">
<stop stop-color="#2FD6B8"/>
<stop offset="1" stop-color="#2FD6B8" stop-opacity="0"/>
</linearGradient>
<linearGradient id="paint4_linear" x1="10" y1="15" x2="20.0833" y2="4" gradientUnits="userSpaceOnUse">
<stop stop-color="#5587F3"/>
<stop offset="1" stop-color="#13C2D8"/>
</linearGradient>
<linearGradient id="paint5_linear" x1="1" y1="36.8437" x2="9.08943" y2="38.9851" gradientUnits="userSpaceOnUse">
<stop stop-color="#5587F3"/>
<stop offset="1" stop-color="#7681F1" stop-opacity="0.2"/>
</linearGradient>
</defs>
</svg>
